<?xml version="1.0" encoding="utf-8"?>
<svg version="1.0" xmlns="http://www.w3.org/2000/svg" width="1728.000000pt" height="1867.000000pt" viewBox="0 0 1728.000000 1867.000000" preserveAspectRatio="xMidYMid meet" xmlns:bx="https://boxy-svg.com">
  <defs>
    <bx:export>
      <bx:file format="svg" units="pt"/>
    </bx:export>
    <mask id="lion-cutout">
      <g transform="translate(0.000000,1867.000000) scale(0.100000,-0.100000)">
        <rect x="-2000" y="-2000" width="21000" height="21000" fill="white"/>
        <path d="M 6578 12572 C 6542 12562 6488 12539 6458 12520 C 6411 12491 6395 12486 6320 12482 C 6219 12477 6210 12470 6210 12389 C 6210 12347 6215 12326 6230 12309 C 6242 12294 6249 12291 6248 12300 C 6244 12323 6290 12323 6326 12301 C 6343 12291 6362 12268 6368 12251 C 6378 12223 6377 12220 6357 12218 C 6320 12216 6286 12221 6274 12231 C 6267 12237 6258 12235 6250 12225 C 6233 12204 6225 12124 6239 12116 C 6245 12112 6250 12115 6250 12122 C 6250 12130 6255 12128 6261 12118 C 6275 12093 6299 12095 6293 12120 C 6286 12147 6311 12146 6337 12118 C 6372 12078 6372 12053 6335 12015 C 6295 11972 6289 11974 6199 12049 C 6162 12080 6089 12129 6036 12159 C 5897 12238 5832 12292 5809 12348 C 5759 12467 5732 12491 5648 12489 C 5615 12489 5610 12487 5625 12480 C 5643 12472 5642 12471 5619 12471 C 5604 12470 5582 12461 5569 12449 L 5545 12429 L 5572 12434 C 5600 12440 5630 12433 5630 12420 C 5630 12415 5617 12409 5600 12405 C 5584 12401 5563 12389 5555 12377 C 5537 12351 5535 12331 5552 12348 C 5559 12355 5573 12360 5584 12360 C 5602 12360 5602 12359 5587 12342 C 5568 12322 5565 12300 5579 12300 C 5585 12300 5592 12305 5595 12310 C 5609 12333 5632 12316 5655 12265 C 5670 12230 5688 12206 5704 12198 C 5718 12192 5730 12180 5730 12172 C 5730 12155 5793 12090 5810 12090 C 5820 12090 5820 12093 5810 12105 C 5804 12113 5800 12125 5802 12131 C 5804 12137 5877 12074 5963 11990 C 6078 11879 6118 11834 6110 11825 C 6098 11810 6045 11794 5955 11779 C 5911 11772 5853 11751 5799 11724 C 5752 11701 5657 11658 5589 11630 C 5521 11601 5457 11571 5448 11563 C 5422 11540 5407 11484 5416 11442 C 5420 11420 5425 11412 5427 11423 C 5433 11448 5443 11444 5460 11408 C 5480 11365 5498 11361 5492 11400 C 5487 11438 5494 11438 5532 11400 C 5570 11361 5583 11362 5575 11402 C 5569 11429 5570 11432 5586 11425 C 5665 11394 5687 11395 5657 11428 C 5647 11438 5640 11451 5640 11457 C 5640 11476 5677 11500 5708 11500 C 5746 11500 5790 11516 5790 11530 C 5790 11535 5778 11540 5763 11540 C 5710 11540 5756 11559 5895 11594 C 6009 11622 6160 11650 6199 11650 C 6203 11650 6213 11631 6221 11608 C 6233 11568 6234 11567 6238 11593 C 6240 11608 6245 11620 6250 11620 C 6267 11620 6300 11533 6300 11488 C 6300 11450 6304 11442 6325 11432 C 6339 11425 6360 11404 6371 11385 C 6388 11357 6398 11350 6424 11350 C 6461 11350 6550 11322 6550 11310 C 6550 11288 6411 11178 6312 11122 C 6199 11058 6142 11008 6174 11002 C 6200 10997 6193 10966 6144 10864 C 6113 10798 6082 10751 6046 10714 C 6017 10684 5997 10660 6002 10660 C 6006 10660 6010 10656 6010 10650 C 6010 10630 5961 10610 5901 10606 C 5833 10603 5793 10581 5778 10541 C 5772 10522 5773 10519 5785 10524 C 5798 10528 5799 10523 5794 10490 C 5787 10449 5803 10432 5813 10470 C 5820 10498 5835 10495 5836 10465 C 5837 10451 5841 10432 5844 10423 C 5850 10409 5854 10412 5870 10438 C 5894 10477 5922 10485 6011 10476 C 6113 10467 6130 10473 6130 10521 C 6130 10564 6132 10565 6162 10549 C 6189 10534 6193 10542 6175 10576 C 6167 10592 6160 10610 6160 10616 C 6160 10635 6289 10843 6323 10878 C 6369 10927 6419 10957 6522 10996 C 6571 11015 6614 11030 6616 11030 C 6618 11030 6620 11019 6620 11005 C 6620 10969 6645 10922 6689 10877 C 6733 10830 6763 10813 6830 10799 C 6870 10790 6883 10783 6891 10763 C 6909 10715 6900 10685 6843 10597 C 6795 10522 6781 10508 6748 10498 C 6707 10486 6703 10481 6722 10462 C 6744 10440 6720 10437 6634 10450 L 6547 10464 L 6519 10432 C 6492 10402 6479 10350 6499 10350 C 6504 10350 6511 10335 6514 10318 L 6521 10285 L 6535 10310 L 6549 10335 L 6550 10310 C 6550 10296 6557 10277 6564 10268 C 6578 10250 6591 10244 6589 10258 C 6581 10306 6609 10316 6714 10300 C 6805 10286 6838 10297 6854 10348 C 6863 10374 6868 10378 6878 10368 C 6887 10359 6890 10364 6890 10393 C 6890 10437 6928 10515 6997 10615 C 7048 10689 7074 10705 7085 10670 C 7097 10632 7112 10664 7118 10738 C 7124 10825 7109 10872 7046 10964 C 7021 11001 7000 11038 7000 11046 C 7000 11075 7030 11118 7071 11148 C 7119 11184 7170 11241 7196 11290 C 7209 11315 7214 11346 7215 11401 C 7215 11473 7212 11483 7160 11591 C 7109 11697 7105 11710 7106 11775 C 7107 11888 7159 11975 7229 11982 C 7248 11984 7265 11991 7268 11998 C 7270 12005 7266 12008 7256 12004 C 7247 12000 7315 12036 7337 12155 C 7340 12172 7349 12192 7356 12201 C 7376 12224 7383 12271 7371 12303 C 7362 12327 7355 12331 7328 12328 C 7311 12326 7295 12319 7292 12312 C 7290 12305 7294 12301 7302 12302 C 7311 12304 7315 12294 7315 12271 C 7315 12240 7310 12233 7260 12204 C 7189 12163 7171 12141 7163 12094 C 7159 12065 7142 12039 7100 11993 C 7022 11910 6988 11838 6982 11745 C 6976 11654 6984 11610 7012 11575 C 7031 11550 7034 11549 7040 11565 C 7045 11580 7052 11576 7080 11540 C 7139 11466 7149 11375 7109 11286 C 7092 11249 7082 11254 7068 11306 C 7052 11366 7022 11394 6947 11422 C 6899 11440 6869 11461 6813 11516 C 6743 11584 6740 11590 6740 11634 C 6740 11667 6745 11683 6758 11691 C 6770 11699 6775 11711 6772 11730 C 6769 11753 6773 11759 6798 11768 C 6839 11782 6887 11835 6918 11900 C 6935 11938 6945 11949 6948 11937 C 6956 11899 6975 11929 6978 11986 C 6981 12034 6986 12050 7008 12073 L 7034 12100 L 7012 12116 C 6983 12136 6984 12168 7014 12180 C 7050 12193 7054 12209 7026 12220 C 6998 12230 6975 12262 6965 12301 C 6960 12322 6963 12331 6980 12343 L 7002 12359 L 6982 12392 C 6971 12410 6948 12438 6931 12454 C 6914 12471 6900 12492 6900 12502 C 6900 12521 6853 12550 6820 12550 C 6808 12550 6801 12554 6804 12559 C 6822 12587 6667 12596 6578 12572 Z" fill="black"/>
      </g>
    </mask>
  </defs>
  <g mask="url(#lion-cutout)">
  <g transform="translate(0.000000,1867.000000) scale(0.100000,-0.100000)" fill="#000000" stroke="none">
    <path d="M 8090 18276 L 8090 18063 L 7939 18056 C 7919.16 18055 7877.91 18050.9 7841.42 18051.6 C 7816.59 18052.1 7799.06 18036.6 7786.86 18059.9 C 7769.95 18092.2 7778.94 18176.1 7772.59 18214.5 C 7762.5 18275.4 7762.8 18381.5 7761 18418 C 7759.38 18451 7759 18452 7723 18446 C 7702 18443 7596 18438 7486 18434 L 7288 18427 L 7294 18236 C 7298 18131 7303 18024 7306 17998 L 7312 17952 L 7410 17957 C 7526 17964 7516 17976 7526 17809 L 7533 17693 L 7444 17686 C 7158 17663 6625 17596 6420 17556 C 6379 17548 6342 17545 6339 17548 C 6333 17555 6288 17782 6293 17785 C 6294 17786 6342 17797 6400 17809 C 6457 17821 6505 17832 6507 17834 C 6511 17838 6420 18283 6414 18289 C 6411 18293 6156 18244 6019 18213 L 5953 18198 L 5992 18008 C 6013 17903 6029 17815 6026 17813 C 6019 17806 5717 17739 5713 17744 C 5711 17746 5686 17837 5658 17946 C 5630 18056 5606 18146 5605 18148 C 5599 18156 5150 18036 5150 18026 C 5150 18020 5173 17927 5200 17820 C 5227 17713 5248 17625 5247 17624 C 5237 17613 4954 17543 4950 17549 C 4947 17554 4921 17640 4891 17740 C 4852 17870 4833 17920 4824 17916 C 4817 17913 4716 17883 4600 17848 C 4463 17807 4390 17781 4390 17772 C 4390 17755 4511 17347 4519 17338 C 4523 17334 4548 17337 4575 17346 C 4603 17354 4646 17367 4672 17375 L 4719 17389 L 4758 17270 L 4798 17152 L 4661 17105 C 4355 16998 4022 16869 3776 16761 C 3699 16727 3631 16700 3625 16700 C 3614 16700 3530 16873 3530 16895 C 3530 16901 3571 16926 3621 16950 C 3671 16975 3714 16998 3716 17002 C 3720 17009 3699 17056 3582 17302 L 3521 17429 L 3310 17328 C 3195 17272 3100 17222 3100 17217 C 3100 17211 3137 17131 3182 17038 C 3227 16946 3261 16868 3259 16866 C 3244 16853 2974 16722 2969 16726 C 2965 16728 2921 16808 2870 16903 C 2820 16997 2775 17079 2770 17083 C 2766 17088 2701 17058 2626 17018 C 2524 16963 2490 16941 2493 16929 C 2503 16891 2905 16178 3239 15607 L 3600 14989 L 3576 14957 C 3535 14902 3520 14863 3520 14812 C 3520 14772 3525 14758 3546 14737 C 3579 14704 3631 14694 3687 14708 C 3710 14715 3734 14721 3741 14722 C 3751 14725 3893 14491 4096 14138 L 4152 14041 L 4117 13996 C 4024 13874 4055 13740 4177 13740 C 4212 13740 4253 13755 4367 13810 C 4552 13900 4886 14048 5105 14138 C 6779 14823 8209 14995 9730 14694 C 10495 14543 11372 14243 12275 13824 C 12448 13744 12471 13736 12527 13736 C 12584 13735 12592 13738 12621 13767 C 12648 13793 12653 13807 12653 13843 C 12653 13895 12616 13966 12570 14002 L 12541 14025 L 12748 14387 L 12955 14749 L 13000 14744 C 13064 14736 13116 14759 13135 14803 C 13151 14842 13145 14876 13110 14938 L 13088 14977 L 13435 15581 C 13626 15913 13797 16210 13815 16240 C 13868 16329 14190 16920 14190 16928 C 14190 16932 14127 16968 14050 17008 L 13911 17081 L 13897 17058 C 13889 17045 13846 16965 13800 16880 C 13755 16795 13715 16721 13710 16717 C 13701 16707 13420 16846 13420 16860 C 13420 16865 13457 16946 13502 17040 C 13546 17133 13581 17212 13579 17214 C 13570 17222 13171 17410 13163 17410 C 13158 17410 13108 17315 13052 17200 L 12951 16989 L 13047 16944 C 13101 16919 13146 16897 13149 16895 C 13152 16891 13078 16712 13064 16692 C 13063 16690 12962 16731 12839 16783 C 12593 16887 12267 17011 12036 17090 C 11954 17117 11884 17142 11882 17145 C 11879 17148 11946 17362 11956 17382 C 11958 17385 12003 17375 12057 17359 C 12110 17343 12154 17331 12156 17332 C 12162 17338 12292 17781 12289 17784 C 12284 17787 11858 17913 11847 17914 C 11842 17915 11813 17832 11783 17730 C 11752 17628 11726 17544 11725 17542 C 11722 17538 11438 17619 11432 17625 C 11429 17628 11450 17721 11479 17831 C 11507 17942 11529 18034 11528 18036 C 11521 18043 11077 18150 11073 18146 C 11070 18143 11046 18052 11018 17943 C 10991 17834 10967 17744 10966 17742 C 10961 17738 10660 17807 10653 17814 C 10650 17817 10664 17904 10685 18006 C 10709 18127 10719 18195 10712 18199 C 10707 18202 10604 18225 10485 18249 C 10336 18280 10266 18290 10262 18283 C 10258 18277 10235 18174 10211 18055 C 10178 17893 10169 17837 10178 17831 C 10185 17827 10233 17816 10285 17806 C 10370 17790 10380 17786 10380 17766 C 10379 17734 10343 17550 10337 17543 C 10333 17540 10230 17553 10108 17573 C 9856 17614 9559 17652 9300 17676 C 9204 17684 9124 17693 9122 17695 C 9120 17696 9123 17755 9127 17826 L 9135 17955 L 9247 17954 L 9358 17953 L 9364 18014 C 9367 18048 9372 18155 9376 18253 L 9382 18430 L 9304 18431 C 9260 18431 9155 18435 9070 18439 C 8985 18444 8914 18446 8913 18445 C 8911 18444 8906 18357 8901 18251 C 8896 18145 8889 18056 8886 18053 C 8883 18050 8809 18051 8721 18055 L 8560 18062 L 8560 18276 L 8560 18490 L 8325 18490 L 8090 18490 L 8090 18276 Z M 8520 18245 L 8520 18050 L 8325 18050 L 8130 18050 L 8130 18245 L 8130 18440 L 8325 18440 L 8520 18440 L 8520 18245 Z M 7721 18343 C 7722 18311 7725 18224 7729 18150 L 7735 18015 L 7843 18012 L 7950 18009 L 7950 17865 L 7950 17721 L 7898 17716 C 7869 17713 7786 17708 7714 17705 L 7582 17699 L 7577 17732 C 7574 17750 7568 17812 7565 17870 C 7561 17928 7556 17982 7554 17991 C 7550 18005 7535 18006 7451 18002 L 7352 17997 L 7346 18081 C 7343 18127 7339 18215 7338 18275 L 7335 18385 L 7455 18390 C 7521 18394 7608 18397 7648 18398 L 7720 18400 L 7721 18343 Z M 9327 18385 C 9336 18382 9338 18357 9335 18298 C 9332 18252 9327 18166 9324 18106 L 9318 17998 L 9206 18001 L 9095 18005 L 9086 17852 L 9077 17699 L 8921 17705 C 8695 17714 8720 17694 8720 17866 L 8720 18011 L 8824 18008 L 8929 18005 L 8934 18034 C 8937 18050 8940 18095 8940 18134 C 8940 18173 8943 18249 8947 18303 L 8953 18401 L 9134 18395 C 9234 18391 9320 18387 9327 18385 Z M 6416 18080 C 6434 17995 6451 17911 6454 17895 L 6460 17865 L 6353 17842 C 6295 17830 6245 17819 6243 17817 C 6242 17815 6251 17755 6265 17684 C 6279 17613 6290 17550 6290 17544 C 6290 17537 6260 17527 6223 17520 C 5938 17472 5388 17334 4997 17214 C 4915 17189 4845 17172 4840 17176 C 4836 17181 4813 17241 4790 17310 C 4766 17379 4746 17436 4744 17438 C 4743 17440 4701 17429 4651 17414 C 4595 17397 4556 17390 4551 17396 C 4541 17406 4436 17750 4442 17755 C 4452 17763 4802 17861 4807 17856 C 4810 17853 4836 17772 4866 17674 C 4895 17577 4921 17495 4924 17493 C 4929 17488 5289 17585 5297 17594 C 5299 17596 5278 17689 5250 17800 C 5222 17911 5200 18004 5202 18005 C 5207 18009 5554 18095 5565 18095 C 5570 18095 5597 18006 5625 17898 C 5653 17790 5678 17699 5681 17695 C 5687 17690 6066 17768 6079 17777 C 6081 17778 6065 17865 6044 17969 C 6023 18073 6007 18161 6010 18163 C 6018 18171 6344 18239 6364 18237 C 6381 18235 6388 18214 6416 18080 Z M 10493 18203 C 10591 18183 10670 18162 10670 18156 C 10670 18150 10652 18062 10631 17962 C 10606 17839 10597 17777 10604 17775 C 10651 17760 10993 17689 10997 17694 C 11000 17696 11024 17788 11052 17897 C 11079 18006 11102 18096 11103 18097 C 11106 18099 11462 18010 11471 18005 C 11475 18002 11454 17908 11425 17796 L 11372 17592 L 11555 17541 C 11655 17513 11741 17490 11747 17490 C 11752 17490 11781 17572 11810 17673 C 11840 17773 11865 17857 11867 17859 C 11870 17863 12163 17779 12216 17759 C 12238 17751 12237 17750 12185 17575 C 12156 17478 12130 17396 12126 17393 C 12123 17389 12078 17398 12028 17413 C 11974 17429 11934 17436 11930 17430 C 11927 17425 11905 17363 11880 17293 C 11856 17223 11836 17164 11835 17162 C 11833 17160 11734 17189 11614 17226 C 11344 17307 10839 17435 10585 17485 C 10481 17506 10392 17526 10389 17529 C 10386 17532 10395 17599 10410 17677 L 10437 17819 L 10391 17829 C 10366 17834 10317 17844 10283 17850 C 10248 17857 10220 17868 10220 17874 C 10219 17911 10295 18240 10304 18240 C 10310 18240 10395 18224 10493 18203 Z M 8250 17940 C 8272 17918 8276 17870 8259 17838 C 8249 17820 8254 17811 8299 17766 L 8350 17715 L 8399 17764 L 8448 17812 L 8432 17851 C 8397 17942 8483 17993 8565 17929 C 8656 17857 8612 17739 8508 17775 C 8472 17787 8471 17787 8423 17738 L 8375 17690 L 8438 17627 L 8501 17565 L 8520 17590 L 8539 17615 L 8574 17581 C 8594 17562 8610 17541 8610 17534 C 8610 17514 8587 17511 8565 17529 C 8546 17544 8546 17544 8562 17525 C 8578 17506 8578 17503 8559 17480 L 8540 17455 L 8443 17558 L 8347 17661 L 8288 17603 C 8256 17572 8230 17541 8230 17536 C 8230 17522 8169 17460 8156 17460 C 8150 17460 8140 17471 8134 17484 C 8125 17504 8126 17512 8139 17526 C 8154 17543 8154 17544 8135 17529 C 8116 17514 8080 17514 8080 17529 C 8080 17533 8098 17554 8120 17575 C 8154 17608 8162 17612 8170 17600 C 8175 17592 8180 17582 8180 17578 C 8180 17557 8211 17576 8263 17628 L 8320 17686 L 8267 17738 C 8228 17776 8211 17787 8203 17779 C 8182 17758 8118 17766 8097 17791 C 8035 17868 8181 18009 8250 17940 Z M 7956 17643 C 7986 17506 8046 17423 8159 17361 L 8214 17332 L 8179 17326 C 8160 17323 8050 17318 7933 17315 C 7816 17312 7707 17307 7689 17303 L 7657 17297 L 7665 17376 C 7670 17419 7676 17500 7679 17555 L 7685 17655 L 7755 17661 C 7794 17664 7853 17667 7887 17668 C 7948 17670 7950 17669 7956 17643 Z M 8959 17654 C 8961 17652 8966 17595 8971 17528 C 8975 17460 8982 17381 8986 17352 L 8993 17298 L 8912 17305 C 8867 17309 8744 17315 8638 17319 L 8445 17325 L 8503 17354 C 8612 17410 8703 17527 8717 17630 L 8723 17671 L 8839 17664 C 8903 17660 8957 17656 8959 17654 Z M 7640 17618 C 7640 17577 7622 17377 7615 17333 C 7609 17297 7625 17301 7391 17277 C 7299 17268 7257 17267 7255 17274 C 7245 17306 7218 17611 7224 17617 C 7232 17625 7465 17647 7568 17649 L 7640 17650 L 7640 17618 Z M 9258 17636 C 9342 17628 9414 17620 9417 17617 C 9422 17611 9385 17271 9379 17266 C 9372 17261 9050 17296 9044 17303 C 9033 17314 9021 17406 9014 17533 L 9007 17650 L 9056 17650 C 9083 17650 9174 17643 9258 17636 Z M 7204 17588 C 7210 17553 7240 17287 7240 17272 C 7240 17267 7198 17257 7148 17251 C 7017 17234 6589 17164 6478 17141 C 6409 17126 6383 17125 6378 17133 C 6346 17183 6254 17469 6267 17480 C 6283 17495 7062 17615 7177 17619 C 7194 17620 7200 17613 7204 17588 Z M 9725 17585 C 9927 17560 10411 17482 10420 17474 C 10425 17469 10371 17301 10328 17187 C 10305 17127 10294 17110 10281 17114 C 10210 17135 9791 17208 9556 17240 C 9474 17251 9404 17262 9402 17265 C 9397 17270 9428 17573 9436 17603 C 9441 17618 9449 17620 9483 17615 C 9506 17612 9615 17599 9725 17585 Z M 6229 17418 C 6237 17389 6263 17310 6287 17242 C 6312 17174 6330 17117 6327 17114 C 6320 17107 6189 17077 6186 17082 C 6179 17089 6100 17444 6104 17448 C 6111 17454 6170 17468 6196 17469 C 6212 17470 6219 17460 6229 17418 Z M 10524 17451 C 10529 17444 10453 17092 10445 17082 C 10443 17080 10420 17085 10393 17092 L 10343 17105 L 10381 17205 C 10402 17260 10429 17340 10442 17382 C 10463 17454 10467 17460 10492 17460 C 10507 17460 10521 17456 10524 17451 Z M 6130 17256 C 6152 17158 6170 17076 6168 17075 C 6166 17074 6111 17060 6045 17045 C 5893 17010 5469 16894 5283 16837 C 5189 16807 5140 16796 5137 16804 C 5073 16971 5010 17163 5016 17170 C 5049 17201 6063 17460 6082 17441 C 6086 17438 6107 17355 6130 17256 Z M 10735 17410 C 11003 17351 11641 17182 11658 17165 C 11662 17161 11543 16821 11531 16801 C 11525 16792 11516 16792 11494 16800 C 11391 16840 10642 17041 10507 17065 C 10487 17069 10468 17075 10466 17079 C 10462 17085 10533 17404 10545 17438 C 10548 17445 10559 17448 10572 17445 C 10585 17442 10658 17426 10735 17410 Z M 3580 17203 C 3624 17112 3660 17033 3660 17029 C 3660 17024 3618 16999 3568 16974 C 3517 16949 3473 16926 3471 16924 C 3469 16922 3490 16868 3519 16804 C 3547 16740 3570 16684 3568 16678 C 3566 16673 3482 16630 3380 16582 C 3278 16534 3123 16457 3036 16412 C 2909 16347 2874 16332 2865 16342 C 2848 16361 2550 16906 2550 16918 C 2550 16931 2739 17032 2750 17025 C 2755 17022 2786 16967 2821 16902 C 2855 16838 2898 16757 2917 16723 L 2951 16661 L 3133 16751 C 3233 16801 3316 16844 3318 16845 C 3320 16847 3283 16928 3236 17025 L 3151 17202 L 3323 17285 C 3418 17331 3496 17369 3497 17369 C 3499 17370 3536 17295 3580 17203 Z M 13520 17187 C 13520 17183 13484 17105 13440 17013 C 13396 16922 13360 16843 13360 16839 C 13360 16832 13711 16650 13724 16650 C 13726 16650 13771 16732 13825 16833 C 13879 16933 13924 17017 13926 17019 C 13930 17024 14130 16916 14130 16909 C 14130 16903 13823 16342 13815 16332 C 13813 16330 13736 16367 13644 16413 C 13482 16494 13169 16643 13123 16661 C 13101 16669 13101 16670 13149 16773 C 13222 16929 13226 16910 13110 16963 L 13011 17009 L 13054 17102 C 13078 17153 13116 17232 13138 17277 L 13180 17359 L 13350 17277 C 13443 17232 13520 17191 13520 17187 Z M 8150 17302 C 8150 17298 8138 17289 8123 17283 C 8033 17243 7969 17145 7960 17035 L 7955 16965 L 7899 16962 C 7847 16959 7842 16961 7837 16982 C 7830 17011 7816 17289 7821 17292 C 7823 17292 7897 17296 7985 17300 C 8073 17303 8146 17307 8148 17308 C 8149 17309 8150 17307 8150 17302 Z M 8790 17293 L 8853 17287 L 8846 17166 C 8842 17099 8837 17026 8834 17003 C 8828 16962 8826 16960 8795 16960 C 8777 16960 8748 16963 8731 16966 C 8704 16972 8700 16977 8700 17004 C 8699 17106 8647 17200 8556 17261 L 8498 17300 L 8612 17300 C 8675 17300 8755 17297 8790 17293 Z M 7804 17238 C 7808 17209 7811 17133 7813 17070 L 7815 16955 L 7702 16946 C 7640 16942 7587 16940 7584 16942 C 7582 16945 7593 17003 7609 17071 C 7625 17139 7641 17214 7645 17237 C 7652 17284 7658 17286 7747 17289 L 7799 17290 L 7804 17238 Z M 8980 17280 C 8993 17280 8999 17268 9004 17233 C 9011 17189 9053 16999 9066 16957 C 9071 16941 9067 16939 9028 16944 C 9005 16947 8954 16952 8916 16956 L 8848 16962 L 8854 17083 C 8858 17150 8863 17225 8867 17249 L 8873 17292 L 8918 17286 C 8943 17283 8971 17280 8980 17280 Z M 7596 17226 C 7591 17176 7535 16942 7527 16934 C 7525 16932 7452 16921 7364 16910 C 7277 16899 7125 16876 7027 16859 C 6928 16842 6846 16830 6844 16832 C 6837 16840 6776 17169 6781 17174 C 6793 17186 7451 17272 7584 17279 C 7601 17280 7602 17275 7596 17226 Z M 9320 17249 C 9517 17228 9890 17174 9899 17165 C 9905 17158 9849 16858 9839 16846 C 9835 16841 9761 16849 9668 16864 C 9578 16879 9429 16900 9335 16911 C 9118 16937 9121 16936 9111 16964 C 9103 16983 9066 17142 9045 17246 L 9039 17278 L 9087 17273 C 9113 17271 9218 17260 9320 17249 Z M 6764 17153 C 6770 17132 6817 16886 6822 16850 C 6825 16826 6821 16825 6696 16798 C 6601 16778 6563 16773 6553 16781 C 6535 16797 6388 17092 6396 17099 C 6402 17106 6703 17168 6737 17169 C 6750 17170 6761 17163 6764 17153 Z M 5058 16982 C 5092 16885 5120 16800 5120 16794 C 5120 16783 5020 16747 5012 16755 C 5009 16758 5001 16808 4993 16867 C 4985 16927 4971 17014 4962 17063 C 4952 17111 4946 17153 4949 17155 C 4951 17158 4963 17160 4974 17160 C 4992 17160 5004 17135 5058 16982 Z M 10114 17129 C 10203 17112 10278 17096 10282 17092 C 10289 17085 10158 16814 10136 16792 C 10125 16780 10101 16782 9995 16804 C 9924 16818 9864 16832 9862 16835 C 9857 16839 9907 17120 9917 17148 C 9924 17165 9933 17164 10114 17129 Z M 11713 17151 L 11736 17142 L 11718 17053 C 11708 17005 11695 16917 11688 16858 C 11681 16798 11672 16750 11666 16750 C 11640 16750 11550 16785 11550 16795 C 11550 16807 11666 17136 11676 17151 C 11682 17162 11683 17162 11713 17151 Z M 4915 17074 C 4933 16997 4960 16812 4960 16768 L 4960 16734 L 4748 16661 C 4631 16620 4441 16552 4326 16509 C 4211 16465 4116 16431 4114 16432 C 4107 16441 3939 16783 3942 16784 C 3984 16814 4887 17145 4898 17135 C 4900 17133 4907 17106 4915 17074 Z M 12280 16957 C 12485 16882 12740 16778 12740 16769 C 12740 16762 12584 16443 12576 16433 C 12575 16432 12484 16464 12375 16504 C 12265 16544 12073 16612 11948 16655 C 11689 16743 11712 16722 11730 16857 C 11740 16933 11767 17078 11776 17112 C 11780 17126 11807 17120 11983 17060 C 12094 17023 12228 16976 12280 16957 Z M 6427 16924 C 6477 16823 6504 16757 6497 16755 C 6490 16753 6418 16736 6335 16716 C 6253 16696 6176 16677 6165 16674 C 6147 16670 6142 16677 6127 16724 C 6084 16865 5992 16934 5830 16950 L 5765 16956 L 5980 17008 C 6268 17078 6312 17088 6330 17089 C 6340 17089 6375 17029 6427 16924 Z M 10595 17026 C 10884 16957 10890 16955 10822 16946 C 10688 16928 10597 16851 10559 16722 C 10548 16685 10543 16679 10526 16684 C 10514 16687 10433 16706 10345 16727 C 10257 16747 10183 16765 10182 16766 C 10180 16767 10213 16839 10257 16924 C 10305 17021 10341 17080 10350 17080 C 10358 17080 10469 17055 10595 17026 Z M 8915 16935 C 9065 16926 9079 16922 9086 16892 C 9096 16852 9175 16649 9200 16600 L 9222 16557 L 9173 16564 C 9094 16574 8788 16600 8743 16600 L 8700 16600 L 8700 16776 L 8700 16952 L 8763 16946 C 8797 16943 8866 16938 8915 16935 Z M 7958 16773 L 7955 16605 L 7860 16598 C 7808 16594 7695 16584 7610 16575 C 7524 16567 7449 16560 7443 16560 C 7437 16560 7453 16611 7480 16673 C 7506 16734 7535 16810 7545 16840 C 7554 16870 7567 16900 7572 16905 C 7581 16915 7750 16933 7883 16938 L 7960 16941 L 7958 16773 Z M 9243 16904 C 9285 16901 9323 16894 9326 16889 C 9329 16884 9324 16820 9316 16747 C 9294 16567 9291 16550 9279 16550 C 9264 16550 9146 16826 9133 16892 C 9128 16918 9130 16922 9146 16917 C 9156 16914 9200 16908 9243 16904 Z M 5567 16879 C 5450 16802 5387 16672 5409 16556 C 5415 16528 5422 16495 5426 16484 C 5431 16464 5418 16458 5223 16393 L 5015 16323 L 5014 16527 L 5014 16731 L 5169 16780 C 5420 16859 5584 16908 5599 16909 C 5607 16910 5593 16896 5567 16879 Z M 7520 16905 C 7520 16892 7447 16704 7415 16633 C 7377 16550 7355 16530 7345 16573 C 7333 16627 7309 16872 7315 16878 C 7325 16888 7520 16914 7520 16905 Z M 9538 16865 C 9731 16836 10097 16767 10106 16757 C 10117 16747 10022 16609 9910 16468 C 9895 16450 9890 16450 9705 16484 C 9600 16503 9471 16524 9416 16531 C 9354 16539 9316 16549 9313 16557 C 9308 16569 9337 16851 9345 16878 C 9351 16894 9343 16894 9538 16865 Z M 11276 16846 C 11358 16822 11480 16785 11548 16765 L 11670 16727 L 11670 16533 C 11670 16382 11667 16339 11658 16342 C 11651 16344 11558 16374 11452 16409 C 11292 16462 11260 16476 11266 16489 C 11270 16498 11275 16541 11277 16585 C 11281 16646 11278 16675 11266 16705 C 11240 16766 11200 16819 11151 16856 C 11127 16875 11111 16890 11117 16890 C 11122 16890 11194 16870 11276 16846 Z M 7312 16735 C 7338 16520 7355 16548 7179 16521 C 7097 16508 6976 16487 6912 16475 C 6803 16454 6794 16453 6776 16468 C 6754 16488 6635 16645 6597 16707 L 6570 16749 L 6608 16759 C 6719 16789 7237 16880 7275 16877 C 7292 16875 7296 16861 7312 16735 Z M 3971 16688 C 3994 16642 4032 16564 4055 16514 L 4098 16423 L 3931 16357 C 3840 16320 3758 16288 3748 16285 C 3736 16280 3721 16294 3692 16337 C 3639 16416 3528 16601 3532 16605 C 3535 16608 3867 16754 3890 16763 C 3923 16775 3931 16767 3971 16688 Z M 13015 16660 C 13054 16642 13095 16624 13108 16619 C 13130 16610 13130 16610 13114 16578 C 13105 16560 13061 16488 13018 16418 L 12938 16291 L 12872 16316 C 12835 16330 12758 16360 12700 16382 C 12642 16404 12594 16423 12592 16425 C 12590 16426 12627 16505 12674 16599 L 12760 16769 L 12852 16730 C 12903 16709 12977 16677 13015 16660 Z M 10271 16724 L 10346 16707 L 10307 16541 C 10285 16450 10266 16373 10264 16371 C 10260 16366 9967 16432 9958 16440 C 9953 16443 9977 16481 10010 16524 C 10043 16567 10091 16636 10117 16676 C 10149 16727 10169 16749 10179 16746 C 10188 16744 10229 16734 10271 16724 Z M 6548 16701 C 6560 16680 6606 16614 6650 16555 C 6694 16496 6729 16445 6726 16443 C 6718 16435 6377 16360 6372 16365 C 6366 16371 6288 16682 6292 16685 C 6298 16689 6495 16738 6511 16739 C 6519 16740 6536 16723 6548 16701 Z M 4968 16508 L 4965 16305 L 4877 16274 C 4798 16246 4788 16244 4783 16259 C 4779 16268 4748 16344 4713 16429 C 4678 16514 4650 16589 4650 16596 C 4650 16607 4922 16707 4958 16709 C 4968 16710 4970 16666 4968 16508 Z M 11968 16628 C 12013 16612 12050 16595 12050 16592 C 12050 16587 11920 16261 11915 16252 C 11912 16248 11736 16313 11723 16323 C 11713 16330 11710 16379 11710 16505 C 11710 16601 11713 16685 11716 16693 C 11721 16706 11734 16704 11803 16683 C 11848 16669 11922 16644 11968 16628 Z M 10458 16681 C 10499 16670 10534 16660 10536 16658 C 10538 16656 10529 16618 10516 16574 C 10503 16531 10480 16456 10466 16409 L 10440 16322 L 10360 16342 C 10316 16353 10280 16367 10280 16372 C 10280 16380 10323 16556 10351 16663 C 10356 16683 10366 16700 10373 16700 C 10380 16700 10418 16691 10458 16681 Z M 6313 16528 C 6334 16444 6350 16370 6350 16363 C 6350 16353 6253 16323 6246 16331 C 6244 16335 6205 16462 6169 16587 L 6152 16649 L 6198 16664 C 6279 16688 6273 16695 6313 16528 Z M 4707 16408 C 4743 16316 4772 16239 4769 16237 C 4767 16235 4689 16205 4595 16170 C 4502 16136 4327 16069 4207 16022 L 3988 15938 L 3957 15975 C 3885 16061 3750 16245 3753 16254 C 3758 16269 4025 16376 4415 16521 C 4565 16576 4627 16595 4632 16587 C 4636 16580 4670 16500 4707 16408 Z M 12297 16511 C 12625 16393 12920 16279 12920 16270 C 12920 16259 12717 15989 12697 15971 C 12683 15960 12645 15972 12423 16058 C 12281 16113 12112 16177 12047 16201 C 11954 16235 11930 16247 11935 16259 C 11975 16368 12067 16590 12072 16590 C 12076 16590 12177 16555 12297 16511 Z M 13499 16434 L 13792 16290 L 13773 16258 C 13762 16240 13728 16179 13696 16122 C 13664 16066 13634 16018 13630 16015 C 13625 16012 13526 16050 13408 16098 C 13291 16147 13147 16207 13088 16230 C 13023 16257 12984 16278 12987 16284 C 12991 16290 13026 16347 13065 16410 C 13105 16473 13144 16539 13154 16557 C 13166 16581 13175 16588 13188 16583 C 13197 16580 13337 16513 13499 16434 Z M 3508 16549 C 3517 16532 3562 16460 3607 16389 C 3686 16263 3688 16259 3667 16250 C 3655 16245 3517 16186 3361 16120 C 3205 16053 3072 16001 3066 16003 C 3060 16006 3019 16070 2976 16145 C 2900 16278 2897 16283 2916 16297 C 2939 16315 3470 16580 3482 16580 C 3487 16580 3499 16566 3508 16549 Z M 7855 16568 C 7859 16555 7880 16246 7877 16244 C 7876 16243 7805 16237 7720 16231 C 7562 16219 7249 16185 7196 16174 L 7166 16168 L 7212 16221 C 7268 16287 7337 16388 7384 16473 L 7420 16537 L 7538 16549 C 7602 16556 7693 16565 7740 16569 C 7787 16574 7831 16578 7838 16579 C 7845 16579 7852 16574 7855 16568 Z M 7958 16413 L 7955 16245 L 7924 16242 L 7893 16239 L 7886 16352 C 7882 16414 7877 16491 7873 16523 L 7867 16580 L 7914 16580 L 7960 16580 L 7958 16413 Z M 8796 16518 C 8793 16483 8788 16407 8784 16348 L 8778 16240 L 8739 16240 L 8700 16240 L 8700 16410 L 8700 16580 L 8751 16580 L 8802 16580 L 8796 16518 Z M 9064 16554 C 9140 16546 9209 16540 9216 16540 C 9224 16540 9239 16521 9251 16498 C 9287 16426 9379 16288 9432 16228 C 9459 16196 9475 16170 9468 16170 C 9461 16170 9385 16179 9300 16190 C 9215 16201 9067 16216 8971 16225 C 8875 16233 8796 16241 8794 16242 C 8791 16246 8810 16551 8815 16566 C 8819 16578 8845 16577 9064 16554 Z M 7360 16524 C 7360 16509 7262 16358 7205 16285 C 7112 16165 7121 16169 7040 16224 C 7002 16250 6969 16279 6966 16288 C 6955 16323 6930 16453 6933 16457 C 6939 16463 7217 16511 7353 16529 C 7357 16530 7360 16527 7360 16524 Z M 9554 16490 C 9659 16473 9746 16458 9748 16456 C 9754 16449 9719 16286 9708 16273 C 9703 16267 9665 16239 9625 16211 L 9551 16161 L 9500 16217 C 9424 16300 9290 16495 9290 16523 C 9290 16533 9285 16533 9554 16490 Z M 6932 16375 C 6940 16334 6944 16300 6941 16300 C 6933 16300 6810 16423 6810 16432 C 6810 16440 6841 16447 6886 16449 C 6917 16450 6917 16450 6932 16375 Z M 9862 16431 C 9866 16427 9841 16395 9805 16360 C 9769 16325 9740 16302 9740 16309 C 9740 16317 9745 16352 9752 16387 L 9764 16452 L 9809 16445 C 9834 16441 9858 16435 9862 16431 Z M 11467 16383 L 11669 16316 L 11675 16260 C 11684 16175 11718 15956 11726 15937 C 11729 15928 11728 15920 11723 15920 C 11716 15920 11416 16023 11283 16071 C 11276 16074 11293 16132 11331 16234 C 11363 16322 11388 16396 11385 16398 C 11377 16406 11377 16405 11321 16249 C 11291 16168 11265 16098 11261 16092 C 11253 16078 11168 16101 11162 16118 C 11158 16132 11250 16450 11259 16450 C 11262 16450 11356 16420 11467 16383 Z M 5460 16368 C 5472 16328 5492 16258 5506 16214 C 5519 16169 5530 16127 5530 16122 C 5530 16109 5423 16073 5414 16082 C 5408 16089 5300 16379 5300 16391 C 5300 16398 5404 16438 5427 16439 C 5434 16440 5449 16407 5460 16368 Z M 6854 16323 C 6968 16213 6965 16216 6973 16174 L 6979 16142 L 6809 16110 C 6716 16092 6573 16063 6492 16045 C 6411 16027 6343 16013 6341 16015 C 6335 16022 6261 16275 6260 16292 C 6260 16301 6269 16311 6280 16315 C 6321 16328 6716 16419 6734 16419 C 6745 16420 6796 16379 6854 16323 Z M 10210 16358 C 10328 16331 10427 16306 10429 16304 C 10433 16300 10352 16009 10345 16002 C 10343 16000 10250 16019 10138 16044 C 10027 16068 9884 16098 9821 16109 C 9758 16121 9706 16131 9704 16133 C 9703 16134 9706 16155 9711 16180 C 9719 16218 9731 16234 9791 16285 C 9829 16318 9874 16362 9891 16383 C 9928 16429 9900 16431 10210 16358 Z M 5342 16229 C 5373 16144 5396 16073 5394 16071 C 5390 16066 4956 15912 4954 15914 C 4953 15914 4958 15944 4966 15980 C 4974 16016 4987 16101 4995 16170 C 5004 16238 5013 16297 5016 16300 C 5025 16309 5264 16388 5275 16386 C 5281 16384 5310 16314 5342 16229 Z M 12015 16191 C 12136 16147 12267 16098 12307 16083 L 12379 16055 L 12296 15896 C 12251 15809 12210 15738 12206 15737 C 12202 15737 12104 15772 11990 15816 L 11781 15895 L 11765 15964 C 11746 16045 11720 16221 11720 16267 L 11720 16299 L 11758 16286 C 11778 16278 11894 16236 12015 16191 Z M 4956 16208 C 4949 16124 4912 15919 4901 15902 C 4893 15888 4489 15729 4479 15736 C 4470 15741 4320 16029 4320 16040 C 4320 16048 4929 16278 4954 16279 C 4959 16280 4960 16248 4956 16208 Z M 13051 16224 C 13086 16210 13116 16197 13118 16195 C 13121 16192 12952 15880 12939 15866 C 12931 15857 12883 15872 12782 15916 L 12728 15940 L 12787 16012 C 12820 16052 12873 16122 12905 16168 C 12937 16213 12969 16250 12975 16250 C 12981 16250 13015 16238 13051 16224 Z M 3732 16197 C 3747 16174 3800 16103 3849 16040 C 3898 15977 3936 15922 3932 15918 C 3921 15908 3770 15847 3767 15851 C 3765 15853 3735 15907 3700 15970 C 3666 16033 3624 16109 3608 16137 L 3579 16190 L 3632 16214 C 3661 16227 3690 16239 3695 16239 C 3701 16240 3717 16221 3732 16197 Z M 7031 16152 C 6992 16148 6994 16147 6984 16184 L 6977 16212 L 7021 16184 L 7064 16155 L 7031 16152 Z M 8905 16190 C 10047 16092 11164 15785 12511 15201 C 12952 15009 13030 14970 13067 14922 C 13104 14873 13111 14821 13083 14799 C 13074 14791 13046 14786 13016 14786 C 12975 14787 12927 14804 12780 14870 C 11221 15565 10097 15887 8875 15990 C 8663 16008 8127 16014 7900 16001 C 6627 15929 5411 15578 3901 14849 C 3669 14737 3630 14726 3588 14760 C 3556 14785 3552 14822 3574 14873 C 3604 14940 3630 14958 3860 15064 C 5428 15788 6624 16124 7915 16204 C 8036 16211 8779 16201 8905 16190 Z M 9696 16184 C 9693 16175 9690 16162 9690 16154 C 9690 16145 9679 16140 9655 16140 C 9612 16140 9611 16149 9653 16177 C 9692 16203 9704 16205 9696 16184 Z M 13331 16110 C 13427 16070 13506 16037 13507 16036 C 13509 16034 13473 16034 13427 16034 C 13281 16035 13189 15984 13121 15861 C 13102 15828 13080 15800 13073 15800 C 13066 15800 13036 15811 13005 15825 L 12949 15849 L 12995 15932 C 13020 15978 13062 16054 13088 16103 C 13114 16151 13140 16188 13146 16186 C 13152 16184 13235 16150 13331 16110 Z M 3661 16011 C 3711 15921 3748 15845 3745 15842 C 3743 15839 3711 15824 3675 15809 L 3611 15782 L 3597 15804 C 3589 15815 3574 15843 3562 15865 C 3513 15961 3415 16024 3296 16036 L 3227 16043 L 3386 16111 C 3473 16148 3551 16178 3558 16177 C 3566 16176 3612 16101 3661 16011 Z M 5582 15951 C 5604 15878 5618 15814 5613 15810 C 5609 15806 5524 15776 5425 15742 C 5326 15709 5201 15666 5148 15646 C 5094 15627 5048 15615 5046 15619 C 5034 15637 4950 15863 4950 15875 C 4950 15891 4980 15903 5470 16073 C 5495 16082 5521 16088 5529 16087 C 5538 16086 5557 16036 5582 15951 Z M 11360 16021 C 11722 15899 11740 15892 11740 15862 C 11740 15834 11652 15600 11641 15600 C 11637 15600 11556 15627 11460 15661 C 11364 15695 11236 15738 11175 15757 C 11115 15776 11064 15793 11063 15794 C 11058 15798 11147 16090 11152 16090 C 11154 16090 11248 16059 11360 16021 Z M 12585 15975 C 12624 15959 12659 15944 12663 15940 C 12674 15931 12403 15670 12383 15670 C 12352 15670 12229 15722 12232 15734 C 12234 15740 12270 15814 12313 15897 L 12391 16049 L 12453 16026 C 12487 16013 12547 15990 12585 15975 Z M 4385 15877 C 4428 15795 4459 15725 4454 15721 C 4449 15717 4410 15699 4367 15682 L 4290 15651 L 4227 15702 C 4160 15757 4010 15906 4010 15918 C 4010 15928 4294 16039 4301 16031 C 4305 16028 4343 15958 4385 15877 Z M 8310 15770 L 8310 15570 L 8178 15570 C 8105 15570 7978 15565 7896 15560 C 7814 15555 7745 15551 7744 15553 C 7739 15557 7709 15942 7713 15946 C 7719 15953 8004 15967 8163 15969 L 8310 15970 L 8310 15770 Z M 8838 15951 C 8889 15947 8932 15941 8935 15939 C 8939 15934 8910 15558 8904 15551 C 8902 15549 8822 15553 8726 15559 C 8629 15565 8501 15570 8440 15570 L 8330 15570 L 8330 15772 L 8330 15973 L 8538 15966 C 8652 15962 8787 15955 8838 15951 Z M 7711 15749 C 7720 15642 7727 15554 7726 15553 C 7725 15552 7643 15542 7544 15531 C 7446 15520 7320 15504 7265 15496 C 7211 15488 7164 15483 7162 15485 C 7156 15490 7097 15870 7101 15874 C 7112 15885 7658 15952 7685 15946 C 7691 15944 7702 15857 7711 15749 Z M 9280 15904 C 9553 15869 9550 15870 9550 15851 C 9550 15835 9505 15551 9495 15499 L 9489 15474 L 9372 15492 C 9308 15501 9181 15518 9090 15528 L 8925 15546 L 8926 15586 C 8927 15607 8933 15696 8940 15784 L 8953 15942 L 9019 15936 C 9055 15932 9173 15918 9280 15904 Z M 12895 15849 C 12991 15809 13070 15775 13070 15771 C 13069 15756 12902 15455 12894 15455 C 12889 15455 12783 15497 12657 15549 L 12430 15643 L 12472 15678 C 12496 15697 12560 15759 12615 15816 C 12670 15873 12716 15919 12718 15920 C 12720 15920 12799 15888 12895 15849 Z M 4056 15802 C 4111 15748 4175 15687 4199 15667 C 4238 15635 4241 15630 4224 15624 C 4214 15620 4117 15579 4009 15534 C 3901 15488 3807 15450 3801 15448 C 3790 15445 3613 15757 3622 15765 C 3626 15770 3944 15899 3951 15900 C 3955 15900 4002 15856 4056 15802 Z M 7085 15848 C 7088 15835 7103 15747 7118 15652 L 7147 15480 L 7126 15475 C 7114 15473 7051 15461 6985 15450 C 6919 15438 6803 15415 6727 15399 C 6650 15382 6586 15370 6584 15372 C 6580 15376 6490 15739 6490 15751 C 6490 15760 6623 15791 6855 15836 C 7065 15876 7078 15877 7085 15848 Z M 12150 15733 C 12257 15692 12348 15655 12353 15651 C 12365 15639 12205 15549 12118 15520 C 12072 15504 12015 15490 11990 15488 L 11945 15485 L 11894 15586 C 11852 15670 11790 15835 11790 15862 C 11790 15870 11868 15842 12150 15733 Z M 4890 15851 C 4890 15846 4876 15802 4859 15753 C 4815 15628 4749 15499 4725 15490 C 4701 15481 4617 15493 4546 15516 C 4444 15549 4312 15626 4329 15643 C 4340 15654 4859 15859 4878 15860 C 4884 15860 4890 15856 4890 15851 Z M 9793 15825 C 10086 15770 10160 15751 10160 15732 C 10159 15711 10074 15370 10067 15364 C 10065 15361 10002 15373 9929 15389 C 9855 15405 9732 15430 9656 15444 C 9579 15458 9514 15472 9511 15475 C 9506 15480 9555 15802 9566 15843 C 9573 15866 9581 15865 9793 15825 Z M 4986 15730 C 5012 15664 5032 15608 5029 15606 C 5022 15599 4816 15520 4813 15524 C 4811 15525 4827 15565 4849 15611 C 4871 15657 4899 15730 4912 15772 C 4924 15815 4936 15850 4937 15850 C 4937 15850 4960 15796 4986 15730 Z M 11853 15563 C 11868 15534 11878 15510 11875 15510 C 11866 15510 11675 15583 11667 15590 C 11663 15593 11676 15636 11696 15686 C 11716 15735 11737 15786 11742 15800 C 11751 15823 11756 15815 11789 15720 C 11810 15662 11839 15591 11853 15563 Z M 6519 15568 C 6543 15467 6564 15380 6567 15374 C 6569 15368 6537 15356 6493 15346 C 6450 15336 6328 15303 6222 15274 C 6115 15244 6027 15220 6025 15220 C 6015 15220 5899 15593 5906 15600 C 5914 15607 6138 15671 6380 15734 C 6481 15760 6470 15773 6519 15568 Z M 10415 15685 C 10717 15607 10750 15597 10750 15585 C 10750 15577 10631 15223 10625 15213 C 10625 15212 10555 15230 10470 15254 C 10385 15277 10264 15309 10203 15325 C 10114 15346 10090 15356 10090 15369 C 10090 15385 10164 15697 10175 15728 C 10177 15734 10185 15740 10192 15740 C 10199 15740 10300 15715 10415 15685 Z M 12620 15544 L 12730 15498 L 12660 15362 C 12621 15288 12592 15225 12595 15222 C 12602 15214 12602 15214 12674 15358 C 12749 15507 12735 15499 12836 15454 L 12891 15430 L 12828 15312 C 12793 15247 12758 15184 12750 15171 L 12735 15149 L 12530 15238 C 12417 15287 12260 15353 12182 15386 C 12079 15428 12043 15446 12057 15451 C 12067 15455 12110 15470 12153 15485 C 12196 15500 12272 15538 12323 15570 L 12415 15628 L 12462 15609 C 12488 15599 12559 15570 12620 15544 Z M 4319 15580 C 4388 15533 4482 15489 4563 15465 C 4595 15456 4620 15447 4618 15445 C 4605 15432 4116 15231 4109 15236 C 4104 15239 4070 15299 4035 15370 L 3971 15498 L 4113 15558 C 4191 15591 4256 15619 4258 15619 C 4259 15620 4287 15602 4319 15580 Z M 5946 15401 L 6007 15212 L 5951 15196 C 5920 15187 5801 15149 5686 15110 C 5570 15072 5475 15042 5474 15043 C 5460 15056 5322 15405 5327 15411 C 5339 15422 5842 15589 5865 15589 C 5883 15590 5893 15565 5946 15401 Z M 11040 15505 C 11282 15426 11330 15409 11330 15402 C 11330 15398 11296 15313 11254 15214 L 11177 15032 L 11031 15081 C 10951 15108 10831 15147 10765 15167 C 10699 15187 10644 15204 10643 15205 C 10641 15206 10746 15528 10765 15577 C 10770 15591 10789 15586 11040 15505 Z M 8539 15524 L 8601 15517 L 8596 15451 C 8593 15415 8588 15328 8584 15258 L 8578 15130 L 8320 15130 C 8094 15130 8061 15132 8056 15146 C 8053 15155 8050 15242 8050 15340 C 8050 15517 8050 15519 8073 15523 C 8109 15530 8472 15531 8539 15524 Z M 8034 15474 C 8037 15448 8040 15359 8040 15275 L 8040 15123 L 7903 15116 C 7827 15113 7704 15103 7630 15095 C 7556 15087 7495 15082 7493 15084 C 7488 15089 7447 15470 7451 15474 C 7459 15483 7832 15515 7956 15518 L 8027 15520 L 8034 15474 Z M 8865 15505 C 9042 15490 9201 15472 9209 15465 C 9213 15460 9162 15089 9156 15083 C 9154 15080 9078 15086 8988 15095 C 8899 15104 8773 15114 8710 15118 L 8595 15125 L 8597 15165 C 8598 15187 8602 15276 8606 15363 L 8612 15520 L 8649 15520 C 8669 15520 8766 15513 8865 15505 Z M 4025 15360 C 4061 15289 4090 15227 4090 15223 C 4090 15215 3949 15148 3944 15153 C 3936 15161 3799 15422 3802 15424 C 3810 15430 3946 15488 3952 15489 C 3957 15490 3989 15432 4025 15360 Z M 7455 15273 L 7475 15081 L 7450 15076 C 7436 15073 7389 15066 7345 15060 C 7301 15054 7198 15037 7116 15024 C 7035 15010 6964 15002 6960 15007 C 6952 15017 6885 15379 6891 15385 C 6903 15397 7352 15469 7400 15467 L 7435 15465 L 7455 15273 Z M 9420 15439 C 9681 15399 9770 15379 9770 15361 C 9770 15336 9704 15001 9698 14995 C 9695 14992 9632 15000 9559 15014 C 9485 15027 9373 15046 9310 15055 C 9247 15064 9190 15073 9184 15074 C 9177 15077 9182 15141 9201 15271 C 9216 15378 9229 15465 9229 15466 C 9231 15467 9299 15458 9420 15439 Z M 5381 15224 C 5422 15127 5456 15044 5458 15041 C 5459 15037 5419 15019 5368 15001 C 5317 14983 5201 14939 5112 14904 C 5022 14869 4944 14840 4939 14840 C 4925 14840 4757 15181 4767 15191 C 4779 15203 5275 15398 5296 15399 C 5302 15400 5340 15321 5381 15224 Z M 11547 15331 C 11794 15240 11900 15199 11900 15194 C 11900 15192 11860 15109 11810 15010 L 11720 14830 L 11668 14851 C 11639 14863 11530 14903 11425 14941 C 11321 14979 11225 15015 11213 15020 C 11192 15029 11192 15031 11256 15182 C 11292 15266 11328 15350 11335 15368 C 11343 15385 11351 15400 11354 15400 C 11356 15400 11443 15369 11547 15331 Z M 6907 15200 C 6925 15104 6939 15017 6940 15008 C 6940 14996 6925 14988 6883 14980 C 6851 14974 6731 14946 6616 14919 C 6501 14892 6406 14871 6405 14873 C 6404 14874 6380 14959 6353 15063 L 6303 15250 L 6352 15265 C 6393 15277 6483 15298 6795 15369 C 6875 15387 6870 15394 6907 15200 Z M 9948 15340 C 10100 15306 10349 15244 10355 15238 C 10359 15235 10262 14869 10256 14863 C 10254 14861 10181 14877 10094 14899 C 10007 14920 9887 14948 9828 14961 C 9746 14978 9720 14987 9720 14999 C 9720 15014 9773 15295 9785 15348 C 9788 15360 9795 15370 9801 15370 C 9807 15370 9873 15356 9948 15340 Z M 6340 15056 C 6368 14953 6390 14867 6388 14865 C 6386 14863 6341 14850 6288 14836 C 6235 14822 6125 14790 6044 14765 C 5963 14740 5895 14722 5893 14724 C 5883 14734 5770 15075 5774 15085 C 5776 15091 5833 15113 5901 15135 C 6045 15180 6284 15248 6287 15246 C 6288 15245 6312 15159 6340 15056 Z M 10664 15151 C 10788 15114 10893 15081 10895 15078 C 10899 15074 10783 14723 10774 14711 C 10772 14709 10686 14733 10583 14763 C 10480 14794 10367 14827 10332 14836 C 10284 14849 10271 14857 10274 14869 C 10286 14908 10370 15222 10370 15227 C 10370 15237 10436 15220 10664 15151 Z M 12230 15063 C 12354 15011 12458 14966 12462 14962 C 12465 14958 12426 14879 12375 14785 C 12305 14658 12276 14615 12263 14616 C 12248 14618 11752 14816 11742 14825 C 11740 14827 11780 14909 11829 15009 L 11920 15190 L 11963 15173 C 11986 15164 12106 15114 12230 15063 Z M 4829 15005 C 4876 14909 4912 14829 4909 14827 C 4907 14825 4790 14775 4650 14716 C 4510 14656 4392 14606 4388 14604 C 4383 14600 4200 14928 4200 14942 C 4200 14950 4717 15178 4735 15179 C 4741 15179 4783 15101 4829 15005 Z M 8585 15080 C 9661 15030 10744 14739 12260 14095 C 12540 13976 12545 13973 12576 13933 C 12612 13885 12619 13822 12591 13796 C 12550 13759 12497 13771 12304 13860 C 11021 14451 9971 14758 8900 14857 C 8630 14882 7996 14882 7730 14857 C 6625 14754 5555 14432 4299 13826 C 4196 13777 4167 13771 4132 13796 C 4115 13808 4110 13821 4110 13859 C 4110 13914 4150 13984 4197 14011 C 4239 14036 4735 14246 4980 14343 C 6389 14900 7511 15130 8585 15080 Z M 5816 14895 C 5850 14796 5878 14715 5877 14714 C 5876 14714 5786 14683 5677 14646 C 5569 14610 5451 14569 5415 14556 L 5351 14531 L 5321 14603 C 5305 14643 5271 14723 5246 14783 L 5201 14890 L 5233 14904 C 5251 14911 5345 14945 5441 14979 C 5536 15013 5638 15050 5665 15060 C 5749 15092 5746 15096 5816 14895 Z M 11055 15026 C 11127 15002 11244 14962 11317 14935 C 11440 14891 11448 14887 11441 14867 C 11414 14797 11306 14544 11299 14536 C 11295 14532 11188 14564 11060 14609 C 10933 14653 10823 14690 10815 14690 C 10807 14690 10798 14695 10795 14700 C 10788 14711 10909 15070 10919 15070 C 10923 15070 10984 15050 11055 15026 Z M 12702 14859 C 12814 14808 12907 14766 12909 14764 C 12914 14759 12718 14420 12709 14420 C 12705 14420 12626 14453 12533 14494 C 12441 14534 12348 14575 12327 14584 L 12288 14600 L 12318 14652 C 12334 14681 12378 14760 12415 14828 C 12451 14895 12485 14950 12490 14950 C 12495 14950 12590 14909 12702 14859 Z M 4240 14833 C 4269 14779 4310 14703 4331 14665 L 4369 14595 L 4187 14511 C 4087 14465 4000 14426 3994 14423 C 3984 14420 3793 14736 3796 14749 C 3798 14756 4162 14929 4176 14930 C 4182 14930 4210 14886 4240 14833 Z M 5261 14711 C 5299 14621 5330 14542 5330 14536 C 5330 14529 5313 14518 5293 14511 C 5272 14503 5159 14460 5041 14413 C 4923 14367 4823 14331 4818 14332 C 4808 14336 4660 14646 4660 14664 C 4660 14670 4679 14683 4703 14692 C 4726 14701 4840 14747 4955 14794 C 5071 14841 5171 14879 5178 14877 C 5186 14876 5223 14801 5261 14711 Z M 11735 14777 C 11862 14728 11967 14685 11970 14683 C 11977 14676 11806 14340 11794 14340 C 11788 14340 11685 14378 11564 14424 C 11444 14470 11337 14510 11328 14513 C 11313 14518 11316 14532 11356 14627 C 11381 14686 11415 14768 11432 14808 C 11459 14872 11465 14880 11484 14874 C 11495 14871 11609 14827 11735 14777 Z M 12257 14565 C 12393 14507 12509 14455 12514 14450 C 12519 14445 12486 14374 12435 14278 C 12386 14188 12346 14114 12345 14112 C 12344 14110 12235 14154 12104 14208 C 11972 14263 11855 14310 11843 14314 C 11830 14318 11820 14326 11820 14331 C 11820 14352 11986 14670 11997 14670 C 12003 14670 12120 14623 12257 14565 Z M 4721 14489 C 4764 14399 4795 14322 4792 14319 C 4784 14312 4355 14130 4329 14123 C 4312 14118 4302 14135 4190 14343 L 4138 14440 L 4207 14472 C 4444 14581 4626 14659 4634 14657 C 4640 14655 4679 14580 4721 14489 Z M 12623 14407 L 12690 14375 L 12594 14208 L 12499 14040 L 12464 14055 C 12445 14063 12414 14077 12395 14085 C 12376 14093 12360 14103 12360 14106 C 12360 14113 12488 14351 12522 14408 C 12533 14425 12545 14440 12548 14439 C 12552 14439 12585 14424 12623 14407 Z M 4190 14313 C 4224 14248 4264 14176 4277 14153 L 4301 14111 L 4271 14095 C 4190 14053 4201 14045 4104 14213 C 4056 14297 4015 14368 4013 14373 C 4009 14379 4104 14430 4121 14430 C 4124 14430 4155 14377 4190 14313 Z"/>
    <path d="M1879 14950 c-365 -362 -549 -774 -566 -1270 -8 -255 31 -492 122 -735 32 -86 125 -282 153 -323 5 -8 7 52 4 144 -3 94 0 196 7 253 12 90 11 103 -14 221 -31 153 -42 327 -26 430 14 90 83 350 93 350 18 0 -7 -217 -46 -395 -10 -44 -15 -116 -15 -195 l1 -125 13 113 c21 177 51 298 136 546 95 275 108 323 124 441 l11 90 22 -90 c40 -169 53 -399 33 -560 -5 -33 -7 -61 -6 -63 9 -11 38 86 59 198 24 128 54 246 60 238 4 -4 -22 -266 -29 -298 -5 -19 19 0 95 75 120 119 118 77 26 397 -75 262 -102 388 -119 558 l-12 125 -126 -125z"/>
    <path d="M15185 15008 c-4 -24 -18 -92 -32 -153 -25 -112 -25 -116 -7 -293 8 -76 -6 -117 -71 -216 -55 -85 -65 -118 -65 -226 l1 -85 86 -58 86 -59 -6 44 c-4 24 -9 77 -12 118 -3 41 -8 86 -11 100 -4 16 -2 21 4 15 11 -11 55 -193 73 -300 6 -38 20 -86 30 -105 l18 -35 -7 50 c-4 28 -7 129 -7 225 0 173 17 316 50 410 12 34 12 33 19 -40 9 -102 35 -198 111 -411 95 -266 126 -391 154 -624 8 -68 9 -66 10 50 0 86 -5 147 -20 215 -37 173 -62 396 -43 377 9 -8 54 -161 81 -272 28 -113 24 -326 -9 -500 -32 -169 -51 -455 -37 -564 5 -41 10 -76 12 -77 5 -5 133 206 177 291 66 130 74 168 75 355 1 146 4 183 34 325 54 266 46 370 -37 467 -65 76 -95 149 -146 354 -25 99 -56 205 -69 236 -36 80 -90 136 -167 170 -76 34 -112 66 -184 163 -76 102 -83 105 -91 53z"/>
    <path d="M 3110 14601 C 2725 14422 2427 14219 2180 13971 C 1831 13619 1660 13243 1660 12825 C 1660 12630 1697 12441 1769 12271 L 1796 12205 L 1690 12100 C 1108 11524 1021 10713 1465 10007 C 1495 9958 1520 9916 1520 9913 C 1520 9910 1497 9870 1469 9824 C 1313 9564 1234 9301 1223 8999 C 1215 8759 1242 8568 1316 8343 C 1419 8033 1615 7708 1853 7453 L 1911 7391 L 1867 7303 C 1767 7103 1728 6940 1727 6715 C 1726 6558 1736 6480 1777 6315 C 1844 6045 1998 5735 2222 5419 L 2311 5294 L 2378 5311 C 2415 5321 2458 5329 2473 5329 L 2502 5330 C 2502 5330 2508 5365 2542 5344 C 2551 5338 3120 5270 3124 5270 C 3134 5270 3122 5431 3104 5540 C 3070 5739 2950 6015 2792 6255 C 2715 6373 2559 6583 2319 6890 C 2193 7052 2033 7284 2011 7338 C 1999 7367 2001 7377 2033 7457 C 2116 7661 2149 7827 2157 8066 C 2169 8432 2093 8819 1925 9245 C 1848 9441 1709 9719 1610 9876 C 1598 9896 1603 9908 1677 10016 C 1908 10358 2042 10640 2097 10900 C 2109 10959 2115 11029 2115 11130 C 2115 11298 2103 11363 2030 11610 C 1954 11868 1910 12057 1910 12126 C 1910 12141 1937 12168 2005 12219 C 2345 12475 2597 12756 2737 13035 C 2825 13211 2872 13370 2955 13778 C 3015 14074 3059 14232 3121 14380 C 3159 14468 3223 14594 3258 14648 C 3266 14660 3268 14670 3264 14669 C 3259 14669 3190 14638 3110 14601 Z"/>
    <path d="M 13959 14588 C 13975 14553 14002 14476 14020 14415 C 14062 14272 14092 14209 14147 14152 C 14247 14048 14265 13994 14280 13756 C 14295 13522 14303 13498 14422 13321 C 14461 13265 14505 13190 14521 13156 C 14550 13094 14580 12967 14580 12908 C 14580 12854 14613 12807 14751 12664 C 14874 12536 14890 12516 14914 12452 C 14948 12363 14992 12322 15165 12214 L 15287 12137 L 15296 12056 C 15310 11915 15307 11887 15268 11823 C 15212 11732 15192 11687 15166 11597 C 15126 11459 15119 11378 15132 11217 C 15141 11101 15141 11051 15130 10957 C 15113 10810 15121 10781 15219 10624 C 15310 10477 15324 10449 15365 10324 C 15405 10203 15448 10116 15537 9981 L 15600 9886 L 15564 9790 C 15518 9671 15500 9646 15442 9617 C 15372 9583 15338 9508 15305 9320 C 15271 9129 15242 9047 15175 8950 C 15102 8842 15096 8817 15099 8622 C 15101 8429 15092 8373 15039 8239 C 15003 8150 14998 8127 14997 8056 C 14997 7962 15008 7915 15057 7806 C 15080 7756 15102 7680 15117 7601 C 15132 7526 15154 7449 15172 7412 L 15201 7349 L 15170 7272 C 15097 7097 15065 7053 14980 7010 C 14886 6963 14834 6896 14730 6686 C 14633 6491 14573 6405 14501 6355 C 14476 6339 14426 6295 14389 6259 C 14313 6185 14264 6092 14212 5930 C 14079 5513 14085 5538 14085 5388 C 14085 5313 14088 5249 14092 5245 C 14095 5241 14141 5252 14193 5269 C 14244 5285 14316 5304 14352 5311 L 14418 5323 L 14719 5343 L 14782 5337 C 14817 5334 14859 5328 14876 5324 C 14905 5319 14910 5322 14938 5362 C 14955 5387 15001 5435 15040 5470 C 15188 5602 15312 5810 15350 5991 C 15360 6043 15374 6124 15380 6172 C 15386 6220 15412 6331 15439 6418 C 15501 6619 15513 6680 15509 6773 C 15505 6835 15500 6853 15475 6889 C 15413 6977 15399 7011 15360 7158 C 15339 7241 15313 7324 15304 7341 C 15286 7377 15268 7353 15465 7560 C 15585 7685 15618 7738 15690 7920 C 15737 8040 15764 8089 15815 8150 C 15897 8248 15922 8332 15940 8575 C 15946 8658 15962 8773 15976 8833 C 16005 8961 16002 8993 15941 9185 C 15893 9333 15881 9403 15881 9518 C 15882 9589 15878 9609 15852 9663 C 15835 9697 15790 9761 15751 9805 C 15712 9849 15680 9890 15680 9895 C 15680 9901 15696 9922 15716 9941 C 15795 10017 15844 10124 15910 10367 C 15932 10449 15968 10562 15989 10620 C 16046 10773 16063 10870 16058 11004 C 16052 11131 16033 11194 15970 11287 C 15922 11360 15909 11394 15865 11559 C 15824 11716 15783 11798 15726 11842 C 15659 11894 15601 11951 15542 12025 C 15512 12064 15467 12116 15442 12141 C 15399 12187 15398 12189 15405 12237 C 15408 12264 15427 12325 15447 12371 C 15521 12548 15523 12554 15511 12656 C 15505 12719 15505 12792 15512 12882 C 15525 13052 15518 13163 15492 13222 C 15481 13247 15450 13292 15422 13323 C 15355 13397 15329 13444 15264 13607 C 15180 13818 15144 13871 15037 13938 C 14948 13994 14885 14051 14781 14170 C 14600 14376 14552 14407 14312 14475 C 14148 14521 14021 14575 13962 14625 L 13931 14651 L 13959 14588 Z"/>
    <path d="M3655 13842 c-149 -53 -263 -101 -408 -173 -170 -85 -277 -148 -277 -163 0 -28 -80 -296 -108 -365 -17 -41 -30 -76 -29 -77 5 -5 267 119 342 162 94 54 197 130 278 203 31 29 57 47 57 39 0 -8 -18 -52 -41 -98 -33 -69 -57 -101 -132 -176 -94 -93 -188 -159 -547 -384 -84 -52 -168 -109 -188 -127 l-37 -32 120 48 c66 26 154 57 195 69 86 25 303 73 308 68 6 -7 -161 -66 -325 -115 -92 -27 -207 -66 -255 -86 -75 -32 -95 -45 -138 -95 -54 -62 -239 -231 -336 -306 l-59 -46 50 7 c960 128 1568 699 1655 1554 13 129 13 131 -2 131 -7 0 -62 -17 -123 -38z"/>
    <path d="M13361 13828 c6 -22 32 -89 59 -147 61 -133 66 -161 45 -248 -14 -57 -15 -80 -6 -129 25 -139 132 -285 258 -352 79 -42 106 -73 176 -208 32 -61 69 -121 81 -133 13 -12 58 -35 101 -51 87 -32 114 -50 235 -150 46 -39 109 -83 139 -97 51 -25 63 -27 166 -25 113 3 153 -5 370 -67 61 -17 67 -18 45 -3 -96 66 -126 99 -175 197 -42 84 -56 103 -90 122 -88 50 -254 116 -398 159 -171 51 -358 116 -352 122 5 6 191 -34 298 -64 106 -30 209 -70 320 -125 45 -23 78 -37 72 -31 -17 17 -244 165 -415 272 -368 229 -486 331 -559 482 -23 46 -41 90 -41 97 0 7 39 -21 88 -62 157 -134 217 -169 615 -355 139 -66 140 -50 7 76 -96 90 -121 125 -65 88 65 -43 125 -75 125 -67 0 5 -45 77 -100 161 -61 93 -106 173 -116 205 -15 53 -15 53 -82 78 -37 13 -93 32 -124 41 -31 9 -90 39 -133 69 -157 107 -158 108 -260 101 l-90 -5 -93 45 c-51 25 -97 46 -102 46 -4 0 -4 -19 1 -42z"/>
    <path d="M 4050 10478 C 4050 8473 4054 7241 4060 7131 C 4122 6064 4559 5101 5328 4334 C 6067 3596 7023 3142 8100 3014 C 8279 2993 8791 2984 8975 2999 C 9899 3074 10735 3386 11446 3921 C 11701 4113 12023 4420 12211 4650 C 12719 5270 13043 5992 13149 6735 C 13200 7095 13197 6718 13193 11043 L 13190 13650 L 8620 13650 L 4050 13650 L 4050 10478 Z M 8430 11310 L 8430 9270 L 6395 9270 L 4360 9270 L 4360 11310 L 4360 13350 L 6395 13350 L 8430 13350 L 8430 11310 Z M 12880 11310 L 12880 9270 L 10845 9270 L 8810 9270 L 8810 11310 L 8810 13350 L 10845 13350 L 12880 13350 L 12880 11310 Z M 8867 8799 C 9088 8730 9345 8526 9619 8200 C 9814 7967 10136 7520 10117 7508 C 10111 7504 10084 7500 10059 7500 C 9996 7500 10004 7461 10180 7467 C 10327 7472 10354 7470 10430 7451 C 10598 7409 10710 7339 10855 7189 C 10991 7048 11119 6872 11282 6600 C 11350 6487 11520 6182 11520 6174 C 11520 6172 10215 6170 8620 6170 L 5720 6170 L 5746 6243 C 5808 6414 5956 6695 6093 6900 C 6435 7412 6805 7741 7155 7846 C 7276 7882 7463 7884 7616 7852 C 7723 7829 7761 7855 7651 7890 L 7568 7918 L 7612 7948 C 7687 8000 7791 8119 7920 8305 C 8100 8562 8212 8675 8365 8753 C 8515 8829 8712 8847 8867 8799 Z M 8787 5581 C 8907 5550 9017 5506 9294 5375 C 9620 5223 9693 5198 9831 5192 C 9966 5187 10023 5201 10316 5310 C 10608 5420 10691 5441 10857 5447 C 11063 5455 11217 5432 11661 5324 C 11899 5267 11985 5250 12193 5223 L 12251 5215 L 12174 5100 C 12132 5037 12077 4959 12053 4927 C 12010 4871 12007 4870 11972 4876 C 11886 4890 11702 4932 11510 4980 C 11231 5049 11108 5071 10955 5077 C 10791 5084 10728 5070 10439 4959 C 10158 4852 10069 4829 9900 4823 C 9683 4814 9536 4852 9236 4992 C 8802 5195 8719 5227 8615 5236 C 8520 5245 8412 5207 8100 5055 C 7694 4858 7573 4823 7328 4833 C 7162 4839 7067 4863 6755 4975 C 6431 5092 6381 5104 6235 5104 C 6080 5103 5961 5081 5543 4975 C 5360 4928 5200 4890 5186 4890 C 5168 4890 5147 4912 5088 4998 C 4984 5146 4936 5220 4941 5224 C 4943 5225 4986 5232 5035 5239 C 5085 5246 5275 5289 5458 5336 C 6029 5480 6228 5504 6470 5454 C 6564 5434 6659 5404 6884 5323 C 7284 5180 7393 5166 7599 5236 C 7641 5250 7799 5322 7950 5395 C 8320 5574 8443 5613 8615 5606 C 8665 5604 8742 5592 8787 5581 Z M 8820 4851 C 8939 4824 9060 4782 9325 4675 C 9826 4472 9871 4470 10335 4620 C 10805 4771 10972 4777 11552 4660 C 11688 4632 11802 4610 11806 4610 C 11820 4610 11764 4557 11638 4450 L 11512 4342 L 11421 4361 C 11252 4395 11046 4422 10940 4422 C 10806 4422 10738 4408 10451 4315 C 10136 4214 10040 4196 9840 4203 C 9620 4211 9537 4234 9118 4403 C 8756 4550 8654 4574 8525 4546 C 8425 4524 8343 4494 8110 4395 C 7753 4243 7613 4206 7395 4207 C 7228 4208 7096 4235 6772 4334 C 6638 4375 6492 4417 6447 4427 C 6302 4458 6094 4445 5815 4386 L 5705 4362 L 5595 4455 C 5535 4506 5468 4566 5447 4587 L 5409 4626 L 5602 4668 C 5943 4741 6081 4760 6269 4760 C 6458 4760 6583 4735 6900 4635 C 7193 4542 7262 4527 7400 4527 C 7547 4527 7621 4546 7835 4636 C 8411 4880 8552 4911 8820 4851 Z"/>
    <path d="M 4842 11633 L 4845 10225 L 4868 10165 C 4899 10084 4953 10007 5009 9966 C 5131 9877 5169 9870 5560 9860 C 5929 9851 5976 9844 6130 9768 C 6213 9727 6315 9641 6367 9566 L 6387 9537 L 6409 9573 C 6447 9635 6555 9727 6634 9765 C 6675 9785 6926 9853 7230 9860 C 7472 9866 7569 9872 7609 9884 C 7770 9929 7867 10018 7922 10172 L 7945 10235 L 7948 11638 L 7950 13040 L 6395 13040 L 4840 13040 L 4842 11633 Z" style=""/>
    
    <path d="M 10167 13088 C 10171 13081 10223 13013 10282 12938 L 10390 12801 L 10390 12295 L 10390 11790 L 9879 11790 L 9367 11790 L 9224 11905 L 9080 12020 L 9080 11325 C 9080 10943 9083 10630 9086 10630 C 9089 10630 9158 10682 9238 10745 L 9385 10860 L 9887 10860 L 10390 10860 L 10390 10351 L 10390 9842 L 10275 9695 C 10212 9614 10160 9546 10160 9544 C 10160 9542 10475 9540 10860 9540 L 11561 9540 L 11440 9690 L 11320 9839 L 11320 10350 L 11320 10860 L 11825 10860 L 12330 10860 L 12477 10744 L 12625 10627 L 12628 11315 C 12629 11694 12628 12005 12626 12007 C 12624 12010 12559 11962 12483 11901 L 12345 11790 L 11833 11790 L 11320 11790 L 11320 12296 L 11320 12803 L 11435 12946 C 11498 13025 11550 13092 11550 13095 C 11550 13098 11237 13100 10854 13100 C 10300 13100 10160 13097 10167 13088 Z"/>
    <path d="M951 12964 c-120 -132 -221 -301 -280 -467 -200 -567 -22 -1302 526 -2169 41 -65 76 -118 78 -118 2 0 -7 24 -19 53 -43 96 -96 277 -116 391 -19 112 -19 113 -95 227 -85 127 -150 254 -190 373 -28 83 -108 416 -102 423 5 4 68 -132 104 -222 13 -33 42 -123 64 -200 25 -90 61 -183 98 -260 59 -118 103 -191 82 -135 -5 14 -21 51 -35 82 -70 157 -139 399 -177 618 -42 247 -35 694 13 855 l12 40 8 -85 c12 -137 37 -297 63 -415 27 -124 175 -586 185 -580 4 2 12 28 19 57 11 45 11 69 -3 154 -22 136 -19 144 14 44 l27 -85 35 75 c46 98 113 211 181 303 l55 74 -149 279 c-169 317 -243 475 -289 619 -17 55 -35 108 -39 119 -6 16 -16 9 -70 -50z"/>
    <path d="M16176 12990 c-2 -14 -14 -72 -25 -129 -27 -143 -60 -204 -135 -257 -44 -30 -68 -56 -91 -98 -38 -68 -49 -114 -75 -316 -11 -85 -28 -191 -39 -235 l-19 -79 30 -35 c42 -48 73 -118 107 -247 16 -60 30 -107 31 -104 0 3 16 50 35 105 30 88 33 94 28 50 -3 -27 -13 -93 -23 -145 -18 -94 -18 -96 2 -135 l21 -40 64 185 c107 308 159 530 186 800 13 121 14 124 25 85 31 -102 44 -278 39 -500 -8 -335 -57 -592 -169 -883 -22 -56 -38 -108 -36 -114 3 -7 23 24 45 68 39 78 64 148 133 374 30 97 128 325 137 317 6 -7 -85 -370 -112 -447 -37 -101 -96 -217 -162 -319 -35 -54 -61 -109 -72 -150 -10 -36 -34 -110 -54 -163 -21 -53 -37 -101 -37 -105 0 -4 20 28 45 71 65 115 84 137 240 291 141 139 143 141 204 265 84 172 114 286 115 450 1 109 -2 134 -24 195 -24 69 -25 74 -25 390 0 370 2 360 -102 484 -32 38 -91 123 -131 189 -39 66 -90 139 -111 163 -39 43 -39 44 -45 19z"/>
    <path d="M3425 12395 c-508 -141 -923 -346 -1230 -605 -127 -108 -120 -89 -84 -211 16 -57 32 -110 35 -118 3 -10 13 -2 31 25 72 107 204 245 343 359 l24 20 -21 -35 c-41 -66 -111 -155 -208 -265 -111 -126 -154 -185 -148 -203 3 -8 28 9 66 45 77 70 177 145 299 222 115 72 421 242 426 236 7 -7 -30 -109 -69 -189 -82 -166 -183 -278 -424 -472 -220 -178 -211 -169 -141 -138 60 25 274 79 283 70 11 -10 -131 -77 -237 -111 -63 -20 -132 -48 -154 -63 -36 -26 -40 -33 -66 -137 -45 -177 -112 -341 -219 -532 -22 -40 -37 -73 -34 -73 12 0 206 112 303 175 340 221 564 461 724 774 49 96 86 186 233 561 89 227 216 452 340 604 75 92 78 96 62 95 -8 0 -68 -15 -134 -34z"/>
    <path d="M13727 12238 c40 -59 58 -98 113 -244 56 -150 83 -186 197 -268 151 -108 214 -232 277 -551 22 -107 41 -177 53 -194 11 -14 75 -65 144 -113 146 -102 252 -196 291 -258 16 -25 38 -76 49 -113 15 -52 30 -78 60 -107 53 -51 215 -133 417 -211 22 -8 22 -8 8 19 -8 15 -28 73 -45 129 -24 75 -50 130 -103 215 -108 174 -130 223 -136 299 l-5 67 -61 36 c-33 20 -110 52 -171 71 -94 30 -243 100 -233 110 7 7 224 -47 279 -70 32 -13 59 -22 59 -20 0 2 -78 66 -173 143 -248 202 -355 319 -434 477 -38 75 -78 184 -70 191 7 7 290 -149 430 -237 137 -87 214 -145 305 -233 48 -47 72 -64 72 -52 0 25 -44 86 -154 211 -141 160 -249 305 -228 305 22 0 299 -286 342 -353 l44 -67 23 101 c12 55 31 126 43 156 11 30 18 58 15 63 -10 17 -170 118 -250 159 -44 23 -123 58 -175 78 -91 34 -135 60 -317 185 -122 85 -213 105 -319 73 -79 -24 -144 -19 -261 20 -58 19 -109 35 -114 35 -4 0 8 -24 28 -52z"/>
    <path d="M3183 10431 c-492 -296 -890 -670 -1138 -1072 l-56 -90 39 -107 c22 -59 47 -131 57 -161 l18 -54 23 79 c27 96 53 162 95 246 41 84 162 288 167 283 9 -8 -64 -208 -135 -370 -127 -288 -169 -446 -70 -262 99 184 254 381 497 630 l129 132 1 -71 c0 -157 -52 -352 -142 -527 -28 -55 -114 -195 -191 -311 -109 -164 -131 -203 -100 -175 21 19 59 49 83 65 58 39 201 117 206 112 9 -10 -131 -134 -220 -195 -76 -52 -113 -86 -158 -144 l-60 -77 -2 -233 c-2 -171 -8 -259 -21 -329 -15 -83 -57 -245 -79 -305 -11 -30 236 225 337 347 180 219 327 466 411 691 83 221 121 431 156 852 25 294 51 488 87 640 27 117 86 296 128 391 14 31 24 58 22 60 -2 2 -39 -18 -84 -45z"/>
    <path d="M13960 10398 c17 -38 41 -124 60 -215 33 -163 44 -197 90 -271 53 -86 64 -155 54 -332 -5 -85 -9 -211 -9 -280 0 -122 1 -127 37 -205 49 -106 62 -165 93 -390 38 -287 55 -332 161 -415 130 -104 222 -240 279 -413 42 -131 52 -149 104 -209 44 -49 229 -203 236 -196 11 11 -40 230 -67 291 -85 195 -94 326 -33 478 l27 67 -36 55 c-61 92 -115 146 -210 210 -92 61 -189 146 -208 180 -20 38 205 -96 281 -167 53 -50 58 -57 -109 195 -75 113 -157 246 -183 296 -86 166 -137 363 -137 522 l1 76 90 -95 c283 -298 438 -489 518 -640 34 -63 46 -79 53 -67 10 19 -24 115 -110 307 -64 144 -135 337 -129 353 4 13 148 -231 186 -315 15 -35 43 -110 62 -165 l33 -101 29 36 c40 50 63 104 87 207 18 74 19 89 7 104 -7 9 -47 55 -89 102 -42 48 -87 107 -100 130 -14 24 -50 89 -81 144 -91 165 -153 221 -266 246 -71 15 -118 53 -216 176 -96 120 -150 168 -204 182 -20 5 -55 15 -79 21 -25 6 -81 40 -141 85 -54 41 -101 75 -104 75 -3 0 7 -28 23 -62z"/>
    <path d="M400 10241 c-58 -214 -83 -419 -84 -671 -1 -384 68 -695 223 -1015 208 -429 536 -756 966 -965 77 -37 160 -75 184 -84 l43 -17 -46 58 c-26 32 -77 101 -113 153 -37 52 -114 145 -172 206 -507 530 -546 591 -677 1079 -9 33 63 -84 105 -170 22 -44 56 -127 76 -185 46 -129 83 -204 147 -297 70 -101 85 -109 32 -16 -101 178 -168 373 -254 743 -62 265 -96 376 -149 477 -21 40 -35 73 -31 73 17 0 220 -223 283 -310 37 -52 101 -162 142 -244 60 -119 75 -142 75 -117 0 18 -24 92 -54 164 -55 135 -127 341 -125 361 0 6 42 -73 93 -175 l92 -186 12 92 c7 51 23 132 36 179 l23 86 -76 73 c-42 40 -139 126 -216 192 -225 191 -404 379 -506 535 l-17 25 -12 -44z"/>
    <path d="M16705 10192 c-12 -32 -47 -75 -106 -133 -74 -74 -89 -95 -103 -141 -31 -106 -96 -170 -295 -288 -64 -38 -146 -94 -183 -125 -68 -56 -68 -57 -62 -98 7 -52 36 -160 68 -252 l24 -70 18 45 c32 81 155 323 160 317 7 -7 -74 -245 -124 -365 -22 -52 -37 -103 -35 -116 4 -17 18 3 62 89 98 189 263 407 385 508 l46 38 -34 -63 c-49 -89 -98 -242 -151 -473 -55 -237 -81 -334 -130 -475 -37 -106 -127 -297 -166 -351 -42 -59 -9 -27 39 39 82 111 119 180 175 332 30 80 67 170 82 200 37 74 96 172 101 167 2 -2 -5 -30 -15 -63 -10 -32 -35 -113 -56 -179 -72 -233 -168 -387 -370 -591 -33 -33 -99 -106 -148 -161 -48 -56 -103 -113 -122 -127 -22 -17 -51 -60 -81 -117 -34 -66 -69 -114 -128 -177 -87 -92 -83 -92 71 5 142 89 193 110 286 117 133 12 231 60 338 166 104 103 169 217 244 425 58 161 119 281 203 397 109 153 113 166 123 412 9 231 20 368 46 580 20 169 16 193 -62 368 -31 70 -59 143 -62 163 -3 19 -9 37 -12 39 -4 3 -15 -17 -26 -42z"/>
    <path d="M3245 7481 c-170 -263 -348 -676 -429 -999 l-26 -102 48 -73 c27 -39 61 -94 77 -120 15 -26 30 -45 34 -42 3 4 18 41 34 83 l27 77 -4 -135 c-4 -102 -1 -141 9 -160 l13 -25 10 25 c6 14 45 99 87 190 93 198 128 286 160 405 29 106 55 252 55 306 0 65 18 53 46 -33 25 -75 28 -97 28 -233 0 -179 -16 -257 -124 -607 -108 -353 -130 -432 -123 -457 5 -19 15 -5 59 80 30 56 77 136 105 178 59 87 212 282 217 276 6 -6 -89 -167 -186 -315 -132 -200 -182 -295 -175 -334 2 -17 7 -75 11 -129 l7 -98 103 -44 103 -43 29 46 c62 98 152 295 194 424 130 393 136 786 20 1191 -36 125 -101 292 -158 404 -38 76 -155 271 -186 310 l-19 25 -46 -71z"/>
    <path d="M13854 7444 c-26 -48 -67 -110 -92 -137 -59 -67 -75 -105 -111 -275 -31 -149 -63 -225 -111 -265 -106 -90 -163 -308 -140 -534 13 -123 30 -183 86 -305 44 -94 61 -159 113 -423 36 -184 69 -250 170 -331 l63 -51 93 41 93 41 -5 150 c-6 175 2 155 -173 425 -104 160 -197 320 -187 320 11 0 163 -198 226 -296 36 -55 82 -133 101 -172 36 -74 46 -84 52 -54 5 21 -14 92 -104 382 -166 537 -183 698 -101 945 20 62 26 49 42 -85 13 -121 48 -256 99 -390 46 -122 184 -420 194 -420 19 0 30 80 25 177 -6 99 4 138 17 71 4 -18 13 -46 19 -62 l13 -30 28 48 c15 26 52 71 83 101 l55 54 -10 64 c-9 59 -21 92 -98 277 -21 51 -29 90 -35 181 -14 203 -69 319 -178 378 -72 38 -98 72 -136 184 -15 42 -31 77 -36 77 -4 0 -29 -39 -55 -86z"/>
    <path d="M856 7273 c-15 -112 -1 -376 30 -563 84 -506 320 -970 674 -1328 95 -96 234 -216 312 -270 l45 -31 52 39 c29 22 84 57 122 77 38 21 68 41 66 45 -1 3 -57 47 -123 97 -249 185 -354 313 -517 626 l-58 110 67 -70 c59 -63 107 -130 258 -364 49 -75 187 -226 241 -264 23 -16 20 -10 -16 29 -133 144 -248 328 -392 624 -60 124 -129 267 -154 318 -53 108 -125 222 -179 281 -20 23 -35 43 -33 46 13 12 252 -170 373 -285 63 -59 78 -70 73 -50 -3 14 -9 45 -13 70 -4 25 -19 68 -33 95 -35 67 -36 75 -10 45 l22 -25 -6 85 c-4 47 -7 97 -7 111 0 23 -22 39 -186 140 -213 131 -391 261 -515 377 l-86 81 -7 -46z"/>
    <path d="M16235 7185 c-125 -149 -164 -176 -264 -185 -96 -9 -122 -23 -229 -122 -48 -44 -104 -91 -124 -104 -33 -21 -38 -29 -38 -62 0 -20 -9 -73 -19 -117 -19 -79 -19 -80 0 -56 29 35 23 15 -15 -53 -19 -34 -46 -99 -60 -145 l-25 -84 102 101 c56 55 127 120 157 145 68 54 215 157 225 157 4 0 -11 -21 -33 -47 -67 -81 -131 -189 -209 -351 -241 -505 -322 -646 -483 -837 l-84 -100 73 65 c88 79 159 162 219 255 117 182 177 266 238 337 37 43 69 76 71 74 6 -6 -153 -292 -206 -370 -81 -122 -282 -317 -421 -407 l-25 -16 85 -43 c47 -23 109 -58 139 -77 29 -19 54 -33 55 -31 1 2 11 25 20 51 27 73 117 162 278 273 264 184 327 264 348 439 24 203 69 305 182 415 42 41 82 89 89 105 9 21 13 91 14 230 l0 200 43 78 c35 65 42 88 42 132 0 50 -34 252 -44 262 -2 2 -47 -48 -101 -112z"/>
    <path d="M 4296 5740 C 4284 5707 4238 5477 4220 5360 C 4193 5184 4170 4935 4170 4814 L 4170 4711 L 4351 4590 C 4450 4523 5143.52 4045.41 5145.52 4047.41 C 5158.52 4060.41 4570 4756 4570 4901 C 4570 5158 4557 5228 4479 5374 C 4445 5440 4390 5552 4359 5624 C 4327 5696 4299 5748 4296 5740 Z"/>
    <path d="M 12828 5492 C 12786 5406 12727 5292 12696 5239 L 12640 5142 L 12631 5012 C 12621 4868 12399.6 4225.51 12401.6 4223.51 C 12403.6 4221.51 12754 4461 12847 4524 L 13017 4639 L 13024 4687 C 13028 4713 13033 4782 13036 4840 C 13041 4935 13039 4953 13015 5030 C 12992 5105 12988 5139 12981 5320 C 12975 5496 12971 5531 12953 5570 C 12910 5664 12913 5667 12828 5492 Z"/>
    <path d="M2478 5265 c-210 -33 -445 -149 -569 -281 -25 -27 -83 -101 -130 -164 -122 -165 -236 -299 -439 -515 -215 -230 -301 -329 -394 -454 -67 -91 -216 -335 -216 -354 0 -5 15 1 33 12 223 146 426 205 702 205 237 0 381 -35 754 -183 582 -233 989 -457 1806 -994 636 -418 890 -573 1220 -741 880 -450 1852 -696 3120 -791 261 -20 333 -19 636 5 1048 83 1893 271 2644 590 410 174 954 477 1345 750 202 140 537 362 712 471 553 344 1183 657 1602 794 258 85 340 100 541 99 150 0 182 -3 276 -26 158 -40 269 -87 424 -179 l39 -23 -47 88 c-119 219 -242 377 -555 714 -253 273 -309 338 -442 517 -129 172 -238 276 -357 338 -470 245 -949 164 -1710 -289 -81 -49 -425 -274 -764 -501 -695 -464 -878 -581 -1198 -764 -938 -537 -1789 -812 -2694 -870 -493 -31 -1169 78 -1782 288 -665 228 -1262 547 -2148 1145 -936 632 -1110 742 -1385 881 -408 206 -725 278 -1024 232z m932 -741 c69 -44 135 -86 146 -92 12 -6 24 -18 27 -26 3 -8 -23 -167 -59 -352 -35 -185 -62 -339 -60 -341 2 -3 134 79 293 181 159 102 296 188 304 191 14 5 244 -135 261 -159 16 -23 -14 -35 -71 -30 -52 6 -58 4 -82 -23 -32 -34 -332 -526 -366 -600 -27 -59 -25 -79 15 -130 25 -34 24 -63 -3 -63 -8 0 -50 26 -93 58 -43 32 -124 85 -181 117 -116 67 -125 86 -47 97 27 4 57 15 67 25 20 20 270 445 265 450 -2 2 -139 -77 -304 -177 -165 -99 -307 -180 -315 -180 -9 0 -19 4 -22 10 -3 5 15 165 40 356 25 191 44 348 42 350 -5 5 -245 -358 -256 -389 -18 -46 -13 -90 14 -129 29 -43 33 -78 9 -78 -9 0 -48 24 -87 53 -39 28 -100 68 -136 88 -46 25 -66 41 -66 55 0 16 9 20 65 24 97 7 100 11 325 319 163 223 185 260 185 306 0 30 -46 115 -69 129 -15 10 -14 43 2 49 15 5 4 11 157 -89z m10480 -11 c0 -10 -9 -31 -20 -48 -24 -37 -25 -73 -3 -105 40 -59 435 -530 460 -550 25 -20 35 -21 101 -15 68 6 72 6 72 -14 0 -14 -19 -32 -68 -61 -38 -22 -116 -79 -175 -125 -58 -47 -113 -85 -121 -85 -19 0 -20 24 -5 68 8 25 8 38 -4 61 -14 28 -338 414 -343 408 -1 -1 29 -150 67 -332 37 -181 68 -342 69 -357 0 -22 -5 -28 -20 -28 -11 0 -163 73 -338 162 -174 89 -312 155 -306 147 6 -8 65 -86 132 -175 66 -89 138 -176 159 -193 37 -32 39 -33 114 -27 61 5 78 3 82 -8 7 -17 -5 -27 -113 -98 -47 -31 -98 -70 -114 -87 -51 -53 -87 -38 -61 25 22 54 18 102 -14 161 -53 95 -334 495 -366 519 -37 28 -100 32 -163 10 -33 -12 -43 -12 -58 -2 -9 7 -14 18 -11 23 4 6 68 54 142 108 74 53 137 101 141 106 14 23 67 -2 340 -161 160 -93 297 -170 303 -170 7 0 10 8 7 18 -30 101 -153 658 -148 668 12 22 226 174 244 174 11 0 18 -7 18 -17z m-1084 -784 c3 -6 -3 -24 -15 -40 -32 -44 -26 -77 31 -170 263 -429 273 -448 272 -565 0 -60 -5 -82 -32 -137 -58 -117 -183 -219 -345 -280 -70 -26 -96 -31 -177 -31 -80 -1 -102 3 -136 21 -67 36 -131 117 -268 338 -72 115 -142 223 -157 239 -28 31 -35 33 -129 23 -19 -1 -26 3 -28 19 -2 18 12 29 80 64 46 23 126 71 179 106 53 35 103 64 112 64 22 0 22 -33 1 -65 -20 -31 -23 -24 142 -291 182 -293 232 -339 369 -339 54 0 81 6 120 24 159 79 218 228 153 388 -34 84 -182 322 -241 388 -58 66 -99 82 -164 65 -37 -9 -49 -8 -59 2 -19 18 -8 29 66 65 36 18 92 52 125 77 61 45 88 55 101 35z m-7950 -84 c4 -8 -13 -226 -36 -483 -29 -327 -41 -493 -37 -554 7 -108 4 -109 -101 -37 -40 28 -120 75 -175 103 -78 39 -102 56 -102 71 0 17 8 21 50 25 l50 5 12 49 c7 26 15 79 19 116 l6 67 -33 26 c-36 26 -229 137 -240 137 -18 0 -131 -96 -145 -122 -18 -35 -11 -61 28 -106 59 -68 11 -81 -75 -21 -34 24 -93 59 -132 79 -88 44 -90 61 -10 76 33 6 71 16 85 24 14 7 185 124 380 260 490 341 446 313 456 285z m541 -346 c46 -28 151 -82 232 -119 167 -76 220 -107 274 -159 87 -82 106 -186 54 -293 -51 -105 -138 -156 -244 -145 -58 6 -59 6 -41 -26 8 -14 15 -90 19 -202 7 -194 13 -221 60 -249 36 -21 36 -31 4 -52 -70 -46 -257 46 -301 149 -16 36 -19 69 -19 244 0 194 -1 203 -22 224 -12 12 -28 19 -36 16 -24 -9 -139 -234 -145 -283 -4 -36 0 -50 22 -78 30 -40 34 -66 9 -66 -9 0 -62 27 -117 59 -56 33 -135 73 -176 90 -96 40 -103 45 -98 67 2 15 14 20 50 22 38 2 51 8 66 30 11 15 94 169 186 343 107 204 166 326 166 345 0 21 -10 40 -30 59 -16 16 -30 34 -30 40 0 11 20 35 28 35 2 0 42 -23 89 -51z m6367 -293 c72 -42 136 -155 136 -239 -1 -42 -29 -104 -70 -150 l-32 -37 32 -6 c17 -4 79 -42 138 -85 59 -43 133 -93 166 -110 54 -29 61 -31 97 -20 22 7 44 9 49 6 41 -25 -51 -129 -144 -164 -117 -44 -193 -19 -371 124 -60 48 -124 94 -141 103 -36 17 -84 10 -84 -13 0 -7 30 -73 66 -145 74 -148 101 -175 165 -166 26 4 40 1 50 -10 18 -22 -1 -35 -105 -75 -45 -17 -127 -55 -184 -86 -83 -44 -106 -52 -117 -43 -20 17 -19 24 10 58 14 17 25 36 25 44 0 18 -314 665 -340 700 -18 25 -27 28 -79 28 -41 0 -60 4 -64 14 -8 21 19 39 113 76 47 19 162 73 256 121 94 48 191 92 215 98 72 17 162 7 213 -23z m-5510 -137 c112 -51 367 -150 490 -190 50 -17 97 -37 104 -44 12 -10 8 -29 -20 -111 -30 -90 -36 -99 -58 -99 -24 0 -25 4 -30 69 -5 66 -7 70 -48 106 -50 45 -165 93 -208 88 -27 -3 -32 -11 -87 -147 -68 -167 -67 -179 9 -205 85 -29 141 -18 193 38 26 28 61 35 61 12 0 -8 -16 -47 -35 -87 -19 -41 -42 -105 -51 -144 -19 -86 -26 -100 -50 -100 -16 0 -20 10 -25 68 -7 80 -32 113 -111 147 -83 36 -85 34 -151 -129 -67 -166 -72 -195 -33 -227 53 -47 190 -68 278 -44 20 6 60 26 88 45 88 59 119 39 75 -51 -29 -59 -100 -130 -141 -140 -41 -10 -92 7 -288 96 -98 45 -226 97 -285 116 -58 20 -110 39 -115 44 -14 14 13 40 40 40 52 0 71 34 200 360 145 364 154 392 130 438 -9 18 -21 32 -26 32 -13 0 -32 38 -25 50 10 16 22 13 119 -31z m4653 -279 c46 -114 52 -147 27 -157 -11 -4 -33 14 -72 56 -48 53 -63 63 -97 67 -49 6 -164 -25 -178 -47 -8 -12 9 -81 67 -275 152 -507 139 -481 246 -486 57 -3 65 -5 65 -23 0 -17 -18 -25 -140 -55 -78 -20 -181 -50 -231 -68 -49 -18 -95 -32 -102 -32 -28 0 -23 32 12 70 20 22 36 50 36 62 0 24 -195 681 -212 711 -23 44 -175 -8 -209 -73 -12 -21 -19 -55 -19 -86 0 -60 -20 -88 -46 -62 -20 19 -61 235 -48 255 5 8 135 51 299 98 160 46 340 99 400 118 158 50 152 53 202 -73z m-3498 -125 c123 -18 169 -29 181 -42 9 -10 111 -163 225 -340 115 -177 211 -321 213 -319 6 7 62 389 62 428 0 62 -21 90 -89 122 -100 46 -71 88 39 56 19 -6 80 -15 135 -21 55 -5 104 -15 110 -20 15 -15 -6 -40 -45 -53 -24 -8 -40 -22 -52 -46 -10 -21 -41 -195 -77 -435 -34 -220 -63 -410 -66 -422 -8 -36 -47 -29 -81 15 -17 20 -151 209 -299 419 -148 211 -272 380 -276 375 -11 -12 -73 -442 -73 -507 -1 -80 22 -117 91 -150 52 -24 68 -50 38 -61 -8 -3 -58 3 -110 15 -53 12 -115 21 -138 21 -128 0 -155 31 -63 73 80 37 97 79 136 342 47 328 51 364 40 405 -13 50 -44 86 -91 110 -54 28 -54 77 1 65 14 -3 99 -16 189 -30z m2525 -41 c3 -9 6 -26 6 -39 0 -12 13 -68 29 -125 17 -56 27 -108 24 -116 -11 -29 -40 -11 -86 56 -94 139 -218 188 -325 131 -56 -30 -71 -137 -26 -190 30 -36 63 -46 202 -61 110 -12 163 -27 228 -65 123 -72 177 -272 110 -408 -35 -73 -118 -149 -194 -178 -70 -26 -280 -39 -350 -20 -53 15 -65 33 -97 151 -28 106 -32 175 -12 183 19 7 30 -2 62 -53 72 -116 148 -179 243 -201 64 -15 117 -2 167 42 58 51 65 126 20 196 -23 34 -65 49 -186 69 -206 32 -283 73 -334 177 -31 65 -42 165 -26 234 38 157 234 258 403 209 59 -17 83 -14 92 10 7 19 42 18 50 -2z m-986 -59 c127 -30 252 -113 317 -210 109 -165 107 -405 -6 -574 -108 -161 -283 -240 -508 -228 -126 6 -205 31 -294 91 -132 88 -188 195 -195 370 -8 188 28 288 142 401 77 76 164 125 264 150 76 18 202 18 280 0z"/>
    <path d="M4456 3315 c-58 -42 -106 -82 -106 -89 0 -15 168 -116 193 -116 20 0 24 14 37 148 10 108 9 132 -9 132 -5 0 -56 -34 -115 -75z"/>
    <path d="M5572 3078 c-56 -92 -161 -309 -156 -322 8 -22 97 -56 147 -56 29 0 55 8 77 23 39 26 94 121 111 190 16 66 -7 127 -64 168 -54 39 -90 38 -115 -3z"/>
    <path d="M11405 2898 c-41 -15 -65 -37 -65 -62 0 -12 36 -95 80 -185 l80 -163 30 6 c54 10 117 61 135 109 18 49 11 96 -26 169 -57 112 -142 158 -234 126z"/>
    <path d="M8665 2291 c-46 -21 -101 -78 -123 -130 -23 -55 -28 -254 -8 -368 42 -240 151 -373 308 -373 108 0 181 61 219 180 29 90 29 264 0 371 -24 94 -88 223 -133 268 -67 69 -178 91 -263 52z"/>
    <path d="M 4304.26 5728.97 C 4301.26 5732.97 4732 4332 4732 4332 L 4791 4291 C 4850 4249 4850 4249 4859 4272 C 4863 4285 4914 4316 4894 4244 C 4890 4227 4909 4211 5019 4137 C 5091 4089 5152 4050 5155 4050 C 5162 4050 5159 4306 5151 4371 C 5145 4420 5137 4436 5095 4485 C 4994 4601 4849 4785 4774 4893 C 4731 4955 4308.26 5723.97 4304.26 5728.97 Z"/>
    <path d="M 12465 4878 C 12394 4769 12205 4539 12074 4399 L 11992 4313 L 12001 4257 C 12006 4226 12024 4164 12040 4118 C 12057 4072 12073 4029 12075 4023 C 12078 4015 12121 4037 12197 4086 C 12262 4128 12316 4164 12318 4165 C 12319 4166 12368 4202 12417 4235 L 12468 4269 C 12468 4269 12716.6 5267.89 12715.6 5267.89 C 12714.6 5267.89 12480 4901 12465 4878 Z"/>
    <path d="M 5745 3817 C 5741 3783 5740 3738 5742 3716 L 5745 3678 L 5905 3589 C 5992 3541 6196.03 3428.29 6197.03 3429.29 C 6198.03 3430.29 6055 3669 6030 3683 C 6016 3692 5947 3739 5878 3789 L 5751 3878 L 5745 3817 Z"/>
    <path d="M 11410 3816 C 11402 3808 11337 3764 11267 3717 L 11139 3632 C 11139 3632 10617.3 3220.94 10620.3 3220.94 C 10629.3 3220.94 11214 3496 11363 3578 C 11471 3637 11500 3657 11500 3674 C 11500 3695 11439 3829 11430 3830 C 11427 3830 11418 3824 11410 3816 Z"/>
    <path d="M1282 3639 c-275 -32 -519 -168 -609 -341 -23 -45 -28 -65 -28 -133 0 -67 4 -89 27 -135 70 -142 215 -263 453 -380 157 -77 285 -123 470 -170 274 -70 386 -82 835 -85 567 -5 810 -29 1045 -102 156 -49 262 -121 308 -208 44 -83 22 -213 -57 -332 -19 -29 -32 -53 -29 -53 22 0 256 193 353 290 98 98 242 283 229 294 -2 2 -83 57 -179 123 -705 483 -1321 827 -1894 1059 -358 145 -667 203 -924 173z"/>
    <path d="M15716 3639 c-308 -32 -674 -165 -1226 -445 -416 -210 -850 -474 -1357 -823 l-132 -91 54 -77 c133 -188 258 -308 493 -477 l53 -39 -40 63 c-61 95 -83 162 -79 241 12 220 271 340 843 389 72 7 308 13 525 15 217 2 433 8 480 14 383 50 774 183 1023 348 90 59 205 172 243 237 95 165 40 357 -138 478 -208 141 -458 197 -742 167z"/>
    <path d="M 6017.06 3689.17 C 6016.06 3689.17 6190 3433 6190 3433 L 6362 3352 C 6581 3250 6700 3199 6700 3208 C 6700 3211 6688 3244 6674 3280 L 6649 3345 L 6512 3412 C 6437 3449 6323 3508 6261 3544 C 6198 3580 6018.06 3689.17 6017.06 3689.17 Z"/>
    <path d="M 10940 3518 C 10882 3485 10791 3438 10738 3412 C 10684 3386 10640 3360 10640 3354 C 10640 3347 10623 3308 10602 3267 L 10564 3192 L 10600 3206 C 10702 3249 11162.7 3642.22 11160.7 3645.22 C 11159.7 3648.22 10998 3550 10940 3518 Z"/>
    <path d="M16475 2770 c-12 -19 -184 -129 -270 -172 -157 -79 -379 -156 -586 -202 -240 -53 -296 -58 -804 -66 -601 -10 -817 -33 -1028 -110 -202 -74 -279 -177 -242 -323 31 -121 106 -216 209 -263 60 -27 203 -54 292 -54 251 0 579 113 937 324 415 244 879 333 1699 324 282 -3 306 -2 290 13 -9 9 -79 71 -154 138 -173 153 -233 220 -290 322 -28 48 -49 76 -53 69z"/>
    <path d="M763 2712 c-59 -108 -124 -182 -294 -333 -93 -82 -169 -151 -169 -152 0 -1 138 -1 307 1 545 6 913 -31 1236 -124 162 -46 280 -98 462 -202 400 -228 662 -317 935 -316 257 0 392 66 470 230 64 133 48 248 -44 316 -121 90 -317 146 -626 179 -58 6 -319 15 -580 19 -360 6 -499 12 -575 24 -412 68 -729 180 -987 352 -53 35 -98 64 -100 64 -2 0 -17 -26 -35 -58z"/>
  </g>
  </g>
</svg>