<svg xmlns="http://www.w3.org/2000/svg" viewBox="0 0 24 24" fill="#000000"><path fill-rule="evenodd" clip-rule="evenodd" d="M18.6 2.8v1.5h2.4h0v0c0.8 0 1.4 0.3 1.9 0.8 0.5 0.5 0.8 1.2 0.8 1.9h0v0v14.3v0h0c0 0.8-0.3 1.4-0.8 1.9-0.5 0.5-1.2 0.8-1.9 0.8h0v0h-12h0v0c-0.8 0-1.4-0.3-1.9-0.8-0.5-0.5-0.8-1.2-0.8-1.9h0v0v-1.9H5.4h0v0c-0.8 0-1.4-0.3-1.9-0.8-0.5-0.5-0.8-1.2-0.8-1.9h0v0V2.8h0c0-0.8 0.3-1.4 0.8-1.9 0.5-0.5 1.2-0.8 1.9-0.8h0v0h12h0v0c0.8 0 1.4 0.3 1.9 0.8 0.5 0.5 0.8 1.2 0.8 1.9h0v0h0v0zM15.8 4.2v-1.5h0c0-0.2-0.1-0.3-0.2-0.5-0.1-0.1-0.3-0.2-0.5-0.2v0h0h-12h0v0c-0.2 0-0.3 0.1-0.5 0.2-0.1 0.1-0.2 0.3-0.2 0.5h0v0v12.5v0h0c0 0.2 0.1 0.3 0.2 0.5 0.1 0.1 0.3 0.2 0.5 0.2v0h0h2.4v7h0c0 0.8 0.3 1.4 0.8 1.9 0.5 0.5 1.2 0.8 1.9 0.8h0v0h0h0v0c0.8 0 1.4-0.3 1.9-0.8 0.5-0.5 0.8-1.2 0.8-1.9h0v-0h0h12h0v0c0.2 0 0.3-0.1 0.5-0.2 0.1-0.1 0.2-0.3 0.2-0.5v0h0h0h0h-0v0h0v0z"/></svg>
