<svg xmlns="http://www.w3.org/2000/svg" viewBox="0 0 24 24" fill="#ffffff"><path d="M22.3 11.6c-0.1-0.2-2.9-4.3-8.6-4.3-5.6 0-8.4 4.1-8.6 4.3-0.1 0.2-0.1 0.6 0 0.8 0.1 0.2 2.9 4.3 8.6 4.3 5.6 0 8.4-4.1 8.6-4.3 0.1-0.2 0.1-0.6 0-0.8zM13.7 15.8c-4.2 0-6.7-2.6-7.4-3.5 0.7-0.9 3.2-3.5 7.4-3.5 4.2 0 6.7 2.6 7.4 3.5-0.7 0.9-3.2 3.5-7.4 3.5z"/><path d="M13.7 10c-1.3 0-2.4 1.1-2.4 2.4s1.1 2.4 2.4 2.4 2.4-1.1 2.4-2.4-1.1-2.4-2.4-2.4zm0 3.8c-0.7 0-1.4-0.6-1.4-1.4s0.6-1.4 1.4-1.4 1.4 0.6 1.4 1.4-0.6 1.4-1.4 1.4z"/></svg>
